<?xml version="1.0" encoding="UTF-8" standalone="no"?>
<!-- Created with Inkscape (http://www.inkscape.org/) -->

<svg
   width="1439.9999"
   height="93.5"
   viewBox="0 0 380.99995 24.738542"
   version="1.1"
   id="svg1"
   xml:space="preserve"
   xmlns="http://www.w3.org/2000/svg"
   xmlns:svg="http://www.w3.org/2000/svg"><defs
     id="defs1"><linearGradient
       id="swatch233"><stop
         style="stop-color:#000000;stop-opacity:1;"
         offset="0"
         id="stop233" /></linearGradient><linearGradient
       id="swatch2"><stop
         style="stop-color:#000000;stop-opacity:1;"
         offset="0"
         id="stop2" /></linearGradient></defs><g
     id="layer1"
     transform="translate(-307.84276,-736.46776)"><path
       fill="#c8a951"
       fill-opacity="1"
       d="m 307.84273,736.46775 7.9375,3.09232 c 7.9375,3.09232 23.8125,9.27695 39.6875,8.24296 15.875,-0.99534 31.75,-9.30595 47.625,-9.78912 15.875,-0.48317 31.75,6.66781 47.625,10.82311 15.875,4.1553 31.75,5.12165 47.625,2.05832 15.87499,-3.12131 31.74999,-10.27229 47.62499,-9.78911 15.875,0.48317 31.75,8.79378 47.625,10.31094 15.875,1.57515 31.75,-3.64314 47.625,-6.70646 15.875,-3.12131 31.75,-4.08766 39.6875,-4.63848 l 7.9375,-0.51216 v 21.64622 h -7.9375 c -7.9375,0 -23.8125,0 -39.6875,0 -15.875,0 -31.75,0 -47.625,0 -15.875,0 -31.75,0 -47.625,0 -15.875,0 -31.75,0 -47.62499,0 -15.875,0 -31.75,0 -47.625,0 -15.875,0 -31.75,0 -47.625,0 -15.875,0 -31.75,0 -47.625,0 -15.875,0 -31.75,0 -39.6875,0 h -7.9375 z"
       id="path1"
       style="stroke-width:0.1599" /></g></svg>
