<?xml version="1.0" encoding="UTF-8" standalone="no"?>
<!-- Created with Inkscape (http://www.inkscape.org/) -->

<svg
   width="1200"
   height="60.007935"
   viewBox="0 0 317.49998 15.877099"
   version="1.1"
   id="svg1"
   xml:space="preserve"
   xmlns="http://www.w3.org/2000/svg"
   xmlns:svg="http://www.w3.org/2000/svg"><defs
     id="defs1"><linearGradient
       id="swatch233"><stop
         style="stop-color:#000000;stop-opacity:1;"
         offset="0"
         id="stop233" /></linearGradient><linearGradient
       id="swatch2"><stop
         style="stop-color:#000000;stop-opacity:1;"
         offset="0"
         id="stop2" /></linearGradient></defs><g
     id="layer6"
     transform="translate(-420.5874,-420.48805)"><path
       style="fill:none;fill-opacity:1;stroke:#000000;stroke-width:2.36203;stroke-dasharray:none;stroke-opacity:1"
       d="m 35.91701,41.02029 c -1.190448,1.147678 -3.050799,3.421441 -4.911151,5.695204 0,0 0.413411,3.100586 0.413411,3.100586 -7.257503,12.724686 -14.514863,25.449121 -15.366535,38.876276 -0.851672,13.427154 4.702301,27.555684 11.596462,36.264744 6.894161,8.70905 15.127846,11.99765 23.361696,15.28632 0,0 0,0.87698 0,0.87698 5.943963,1.65651 11.887929,3.31303 18.014658,3.28865 6.12673,-0.0244 12.435973,-1.72958 18.745344,-3.43482 0,0 -0.292328,-1.31546 -0.292328,-1.31546 8.526178,-3.60536 17.052193,-7.21064 23.044993,-13.65412 5.9928,-6.44348 9.45185,-15.72446 10.60117,-25.1091 1.14933,-9.384648 -0.0112,-18.871823 -2.75534,-27.350744 -2.74413,-8.478922 -7.07161,-15.94872 -11.39918,-23.418666 0,0 -0.10335,-4.754232 -0.10335,-4.754232 0,0 -4.85758,-6.717937 -4.85758,-6.717937 0,0 -13.849286,8.371583 -13.849286,8.371583 0,0 0.414798,6.470113 0.414798,6.470113 2.850179,6.138847 5.700357,12.277693 8.221692,19.183972 2.521335,6.906279 4.713696,14.579535 3.946326,22.241063 -0.767372,7.661528 -4.494381,15.310418 -10.913505,20.438408 -6.419123,5.128 -15.529585,7.73446 -24.591874,7.05236 -9.062289,-0.68211 -18.075319,-4.65272 -23.580901,-11.26672 -5.505582,-6.61401 -7.503064,-15.870637 -6.345918,-24.701495 1.157147,-8.830859 5.46887,-17.235064 8.513951,-22.740565 3.045081,-5.5055 4.823363,-8.112021 6.601681,-10.718595 0,0 -0.292328,-5.554194 -0.292328,-5.554194 0,0 -11.985368,-7.600476 -11.985368,-7.600476 -0.520545,0.02159 -1.041091,0.04319 -2.231538,1.190865 z"
       id="path65-6-4-4"
       transform="matrix(0,-0.04925021,0.04748566,0,418.82659,437.08754)" /><path
       style="fill:none;fill-opacity:1;stroke:#000000;stroke-width:2.36203;stroke-dasharray:none;stroke-opacity:1"
       d="m 51.010893,140.17034 c 0.310598,-1.27893 0.621193,-2.55785 1.32157,-3.78198 0.700378,-1.22413 1.790488,-2.39341 3.474429,-2.83798 1.683941,-0.44458 3.961604,-0.16444 6.263695,0.0548 2.30209,0.21925 4.628471,0.37759 6.942743,0.33495 2.314272,-0.0426 4.616292,-0.28623 6.632141,-0.49329 2.015848,-0.20707 3.745411,-0.37759 5.353218,-0.067 1.607808,0.3106 3.093768,1.1023 4.147367,2.22899 1.053598,1.12669 1.674779,2.58829 2.295972,4.04992"
       id="path69-7-3-4"
       transform="matrix(0,-0.04925021,0.04748566,0,418.82659,437.08754)" /><ellipse
       style="fill:none;fill-opacity:1;stroke:#000000;stroke-width:0.114228;stroke-dasharray:none;stroke-opacity:1"
       id="path72-73-9-4"
       cx="-435.50122"
       cy="422.02029"
       transform="rotate(-90)"
       rx="0.24504612"
       ry="0.23626655" /><ellipse
       style="fill:none;fill-opacity:1;stroke:#000000;stroke-width:0.114228;stroke-dasharray:none;stroke-opacity:1"
       id="path72-73-0-8-2"
       cx="-435.77682"
       cy="422.89658"
       transform="rotate(-90)"
       rx="0.24504612"
       ry="0.23626655" /><ellipse
       style="fill:none;fill-opacity:1;stroke:#000000;stroke-width:0.114228;stroke-dasharray:none;stroke-opacity:1"
       id="path72-73-0-9-8-7"
       cx="-435.72293"
       cy="423.76672"
       transform="rotate(-90)"
       rx="0.24504612"
       ry="0.23626655" /><ellipse
       style="fill:none;fill-opacity:1;stroke:#000000;stroke-width:0.114228;stroke-dasharray:none;stroke-opacity:1"
       id="path72-73-0-9-5-0-9"
       cx="-435.28195"
       cy="424.53171"
       transform="rotate(-90)"
       rx="0.24504612"
       ry="0.23626655" /><ellipse
       style="fill:none;fill-opacity:1;stroke:#000000;stroke-width:0.114228;stroke-dasharray:none;stroke-opacity:1"
       id="path72-73-6-8-2"
       cx="431.94315"
       cy="421.99289"
       transform="matrix(0,1,1,0,0,0)"
       rx="0.24504612"
       ry="0.23626655" /><ellipse
       style="fill:none;fill-opacity:1;stroke:#000000;stroke-width:0.114228;stroke-dasharray:none;stroke-opacity:1"
       id="path72-73-0-4-7-3"
       cx="431.66751"
       cy="422.86917"
       transform="matrix(0,1,1,0,0,0)"
       rx="0.24504612"
       ry="0.23626655" /><ellipse
       style="fill:none;fill-opacity:1;stroke:#000000;stroke-width:0.114228;stroke-dasharray:none;stroke-opacity:1"
       id="path72-73-0-9-0-7-7"
       cx="431.72144"
       cy="423.73932"
       transform="matrix(0,1,1,0,0,0)"
       rx="0.24504612"
       ry="0.23626655" /><ellipse
       style="fill:none;fill-opacity:1;stroke:#000000;stroke-width:0.114228;stroke-dasharray:none;stroke-opacity:1"
       id="path72-73-0-9-5-6-8-31"
       cx="432.16245"
       cy="424.5043"
       transform="matrix(0,1,1,0,0,0)"
       rx="0.24504612"
       ry="0.23626655" /><path
       style="fill:none;fill-opacity:1;stroke:#000000;stroke-width:2.36203;stroke-dasharray:none;stroke-opacity:1"
       d="m 35.91701,41.02029 c -1.190448,1.147678 -3.050799,3.421441 -4.911151,5.695204 0,0 0.413411,3.100586 0.413411,3.100586 -7.257503,12.724686 -14.514863,25.449121 -15.366535,38.876276 -0.851672,13.427154 4.702301,27.555684 11.596462,36.264744 6.894161,8.70905 15.127846,11.99765 23.361696,15.28632 0,0 0,0.87698 0,0.87698 5.943963,1.65651 11.887929,3.31303 18.014658,3.28865 6.12673,-0.0244 12.435973,-1.72958 18.745344,-3.43482 0,0 -0.292328,-1.31546 -0.292328,-1.31546 8.526178,-3.60536 17.052193,-7.21064 23.044993,-13.65412 5.9928,-6.44348 9.45185,-15.72446 10.60117,-25.1091 1.14933,-9.384648 -0.0112,-18.871823 -2.75534,-27.350744 -2.74413,-8.478922 -7.07161,-15.94872 -11.39918,-23.418666 0,0 -0.10335,-4.754232 -0.10335,-4.754232 0,0 -4.85758,-6.717937 -4.85758,-6.717937 0,0 -13.849286,8.371583 -13.849286,8.371583 0,0 0.414798,6.470113 0.414798,6.470113 2.850179,6.138847 5.700357,12.277693 8.221692,19.183972 2.521335,6.906279 4.713696,14.579535 3.946326,22.241063 -0.767372,7.661528 -4.494381,15.310418 -10.913505,20.438408 -6.419123,5.128 -15.529585,7.73446 -24.591874,7.05236 -9.062289,-0.68211 -18.075319,-4.65272 -23.580901,-11.26672 -5.505582,-6.61401 -7.503064,-15.870637 -6.345918,-24.701495 1.157147,-8.830859 5.46887,-17.235064 8.513951,-22.740565 3.045081,-5.5055 4.823363,-8.112021 6.601681,-10.718595 0,0 -0.292328,-5.554194 -0.292328,-5.554194 0,0 -11.985368,-7.600476 -11.985368,-7.600476 -0.520545,0.02159 -1.041091,0.04319 -2.231538,1.190865 z"
       id="path65-6-4-9-5"
       transform="matrix(0,-0.04925021,0.04748566,0,438.88831,426.77283)" /><path
       style="fill:none;fill-opacity:1;stroke:#000000;stroke-width:2.36203;stroke-dasharray:none;stroke-opacity:1"
       d="m 51.010893,140.17034 c 0.310598,-1.27893 0.621193,-2.55785 1.32157,-3.78198 0.700378,-1.22413 1.790488,-2.39341 3.474429,-2.83798 1.683941,-0.44458 3.961604,-0.16444 6.263695,0.0548 2.30209,0.21925 4.628471,0.37759 6.942743,0.33495 2.314272,-0.0426 4.616292,-0.28623 6.632141,-0.49329 2.015848,-0.20707 3.745411,-0.37759 5.353218,-0.067 1.607808,0.3106 3.093768,1.1023 4.147367,2.22899 1.053598,1.12669 1.674779,2.58829 2.295972,4.04992"
       id="path69-7-3-2-7"
       transform="matrix(0,-0.04925021,0.04748566,0,438.88831,426.77283)" /><ellipse
       style="fill:none;fill-opacity:1;stroke:#000000;stroke-width:0.114228;stroke-dasharray:none;stroke-opacity:1"
       id="path72-73-9-5-8"
       cx="-425.18652"
       cy="442.082"
       transform="rotate(-90)"
       rx="0.24504612"
       ry="0.23626655" /><ellipse
       style="fill:none;fill-opacity:1;stroke:#000000;stroke-width:0.114228;stroke-dasharray:none;stroke-opacity:1"
       id="path72-73-0-8-5-5"
       cx="-425.46213"
       cy="442.95828"
       transform="rotate(-90)"
       rx="0.24504612"
       ry="0.23626655" /><ellipse
       style="fill:none;fill-opacity:1;stroke:#000000;stroke-width:0.114228;stroke-dasharray:none;stroke-opacity:1"
       id="path72-73-0-9-8-3-8"
       cx="-425.40823"
       cy="443.82843"
       transform="rotate(-90)"
       rx="0.24504612"
       ry="0.23626655" /><ellipse
       style="fill:none;fill-opacity:1;stroke:#000000;stroke-width:0.114228;stroke-dasharray:none;stroke-opacity:1"
       id="path72-73-0-9-5-0-3-3"
       cx="-424.96725"
       cy="444.59341"
       transform="rotate(-90)"
       rx="0.24504612"
       ry="0.23626655" /><ellipse
       style="fill:none;fill-opacity:1;stroke:#000000;stroke-width:0.114228;stroke-dasharray:none;stroke-opacity:1"
       id="path72-73-6-8-3-24"
       cx="421.62842"
       cy="442.0546"
       transform="matrix(0,1,1,0,0,0)"
       rx="0.24504612"
       ry="0.23626655" /><ellipse
       style="fill:none;fill-opacity:1;stroke:#000000;stroke-width:0.114228;stroke-dasharray:none;stroke-opacity:1"
       id="path72-73-0-4-7-7-1"
       cx="421.35284"
       cy="442.93088"
       transform="matrix(0,1,1,0,0,0)"
       rx="0.24504612"
       ry="0.23626655" /><ellipse
       style="fill:none;fill-opacity:1;stroke:#000000;stroke-width:0.114228;stroke-dasharray:none;stroke-opacity:1"
       id="path72-73-0-9-0-7-4-1"
       cx="421.40674"
       cy="443.80103"
       transform="matrix(0,1,1,0,0,0)"
       rx="0.24504612"
       ry="0.23626655" /><ellipse
       style="fill:none;fill-opacity:1;stroke:#000000;stroke-width:0.114228;stroke-dasharray:none;stroke-opacity:1"
       id="path72-73-0-9-5-6-8-3-5"
       cx="421.84772"
       cy="444.56601"
       transform="matrix(0,1,1,0,0,0)"
       rx="0.24504612"
       ry="0.23626655" /><path
       style="fill:none;fill-opacity:1;stroke:#000000;stroke-width:2.36203;stroke-dasharray:none;stroke-opacity:1"
       d="m 35.91701,41.02029 c -1.190448,1.147678 -3.050799,3.421441 -4.911151,5.695204 0,0 0.413411,3.100586 0.413411,3.100586 -7.257503,12.724686 -14.514863,25.449121 -15.366535,38.876276 -0.851672,13.427154 4.702301,27.555684 11.596462,36.264744 6.894161,8.70905 15.127846,11.99765 23.361696,15.28632 0,0 0,0.87698 0,0.87698 5.943963,1.65651 11.887929,3.31303 18.014658,3.28865 6.12673,-0.0244 12.435973,-1.72958 18.745344,-3.43482 0,0 -0.292328,-1.31546 -0.292328,-1.31546 8.526178,-3.60536 17.052193,-7.21064 23.044993,-13.65412 5.9928,-6.44348 9.45185,-15.72446 10.60117,-25.1091 1.14933,-9.384648 -0.0112,-18.871823 -2.75534,-27.350744 -2.74413,-8.478922 -7.07161,-15.94872 -11.39918,-23.418666 0,0 -0.10335,-4.754232 -0.10335,-4.754232 0,0 -4.85758,-6.717937 -4.85758,-6.717937 0,0 -13.849286,8.371583 -13.849286,8.371583 0,0 0.414798,6.470113 0.414798,6.470113 2.850179,6.138847 5.700357,12.277693 8.221692,19.183972 2.521335,6.906279 4.713696,14.579535 3.946326,22.241063 -0.767372,7.661528 -4.494381,15.310418 -10.913505,20.438408 -6.419123,5.128 -15.529585,7.73446 -24.591874,7.05236 -9.062289,-0.68211 -18.075319,-4.65272 -23.580901,-11.26672 -5.505582,-6.61401 -7.503064,-15.870637 -6.345918,-24.701495 1.157147,-8.830859 5.46887,-17.235064 8.513951,-22.740565 3.045081,-5.5055 4.823363,-8.112021 6.601681,-10.718595 0,0 -0.292328,-5.554194 -0.292328,-5.554194 0,0 -11.985368,-7.600476 -11.985368,-7.600476 -0.520545,0.02159 -1.041091,0.04319 -2.231538,1.190865 z"
       id="path65-6-4-4-1"
       transform="matrix(0,-0.04925021,0.04748566,0,460.79696,436.92074)" /><path
       style="fill:none;fill-opacity:1;stroke:#000000;stroke-width:2.36203;stroke-dasharray:none;stroke-opacity:1"
       d="m 51.010893,140.17034 c 0.310598,-1.27893 0.621193,-2.55785 1.32157,-3.78198 0.700378,-1.22413 1.790488,-2.39341 3.474429,-2.83798 1.683941,-0.44458 3.961604,-0.16444 6.263695,0.0548 2.30209,0.21925 4.628471,0.37759 6.942743,0.33495 2.314272,-0.0426 4.616292,-0.28623 6.632141,-0.49329 2.015848,-0.20707 3.745411,-0.37759 5.353218,-0.067 1.607808,0.3106 3.093768,1.1023 4.147367,2.22899 1.053598,1.12669 1.674779,2.58829 2.295972,4.04992"
       id="path69-7-3-4-4"
       transform="matrix(0,-0.04925021,0.04748566,0,460.79696,436.92074)" /><ellipse
       style="fill:none;fill-opacity:1;stroke:#000000;stroke-width:0.114228;stroke-dasharray:none;stroke-opacity:1"
       id="path72-73-9-4-2"
       cx="-435.33444"
       cy="463.99066"
       transform="rotate(-90)"
       rx="0.24504612"
       ry="0.23626655" /><ellipse
       style="fill:none;fill-opacity:1;stroke:#000000;stroke-width:0.114228;stroke-dasharray:none;stroke-opacity:1"
       id="path72-73-0-8-2-5"
       cx="-435.61005"
       cy="464.86691"
       transform="rotate(-90)"
       rx="0.24504612"
       ry="0.23626655" /><ellipse
       style="fill:none;fill-opacity:1;stroke:#000000;stroke-width:0.114228;stroke-dasharray:none;stroke-opacity:1"
       id="path72-73-0-9-8-7-3"
       cx="-435.55615"
       cy="465.73709"
       transform="rotate(-90)"
       rx="0.24504612"
       ry="0.23626655" /><ellipse
       style="fill:none;fill-opacity:1;stroke:#000000;stroke-width:0.114228;stroke-dasharray:none;stroke-opacity:1"
       id="path72-73-0-9-5-0-9-8"
       cx="-435.11517"
       cy="466.50208"
       transform="rotate(-90)"
       rx="0.24504612"
       ry="0.23626655" /><ellipse
       style="fill:none;fill-opacity:1;stroke:#000000;stroke-width:0.114228;stroke-dasharray:none;stroke-opacity:1"
       id="path72-73-6-8-2-9"
       cx="431.77634"
       cy="463.96326"
       transform="matrix(0,1,1,0,0,0)"
       rx="0.24504612"
       ry="0.23626655" /><ellipse
       style="fill:none;fill-opacity:1;stroke:#000000;stroke-width:0.114228;stroke-dasharray:none;stroke-opacity:1"
       id="path72-73-0-4-7-3-2"
       cx="431.50073"
       cy="464.83951"
       transform="matrix(0,1,1,0,0,0)"
       rx="0.24504612"
       ry="0.23626655" /><ellipse
       style="fill:none;fill-opacity:1;stroke:#000000;stroke-width:0.114228;stroke-dasharray:none;stroke-opacity:1"
       id="path72-73-0-9-0-7-7-8"
       cx="431.55463"
       cy="465.70969"
       transform="matrix(0,1,1,0,0,0)"
       rx="0.24504612"
       ry="0.23626655" /><ellipse
       style="fill:none;fill-opacity:1;stroke:#000000;stroke-width:0.114228;stroke-dasharray:none;stroke-opacity:1"
       id="path72-73-0-9-5-6-8-31-7"
       cx="431.99564"
       cy="466.47467"
       transform="matrix(0,1,1,0,0,0)"
       rx="0.24504612"
       ry="0.23626655" /><path
       style="fill:none;fill-opacity:1;stroke:#000000;stroke-width:2.36203;stroke-dasharray:none;stroke-opacity:1"
       d="m 35.91701,41.02029 c -1.190448,1.147678 -3.050799,3.421441 -4.911151,5.695204 0,0 0.413411,3.100586 0.413411,3.100586 -7.257503,12.724686 -14.514863,25.449121 -15.366535,38.876276 -0.851672,13.427154 4.702301,27.555684 11.596462,36.264744 6.894161,8.70905 15.127846,11.99765 23.361696,15.28632 0,0 0,0.87698 0,0.87698 5.943963,1.65651 11.887929,3.31303 18.014658,3.28865 6.12673,-0.0244 12.435973,-1.72958 18.745344,-3.43482 0,0 -0.292328,-1.31546 -0.292328,-1.31546 8.526178,-3.60536 17.052193,-7.21064 23.044993,-13.65412 5.9928,-6.44348 9.45185,-15.72446 10.60117,-25.1091 1.14933,-9.384648 -0.0112,-18.871823 -2.75534,-27.350744 -2.74413,-8.478922 -7.07161,-15.94872 -11.39918,-23.418666 0,0 -0.10335,-4.754232 -0.10335,-4.754232 0,0 -4.85758,-6.717937 -4.85758,-6.717937 0,0 -13.849286,8.371583 -13.849286,8.371583 0,0 0.414798,6.470113 0.414798,6.470113 2.850179,6.138847 5.700357,12.277693 8.221692,19.183972 2.521335,6.906279 4.713696,14.579535 3.946326,22.241063 -0.767372,7.661528 -4.494381,15.310418 -10.913505,20.438408 -6.419123,5.128 -15.529585,7.73446 -24.591874,7.05236 -9.062289,-0.68211 -18.075319,-4.65272 -23.580901,-11.26672 -5.505582,-6.61401 -7.503064,-15.870637 -6.345918,-24.701495 1.157147,-8.830859 5.46887,-17.235064 8.513951,-22.740565 3.045081,-5.5055 4.823363,-8.112021 6.601681,-10.718595 0,0 -0.292328,-5.554194 -0.292328,-5.554194 0,0 -11.985368,-7.600476 -11.985368,-7.600476 -0.520545,0.02159 -1.041091,0.04319 -2.231538,1.190865 z"
       id="path65-6-4-9-5-0"
       transform="matrix(0,-0.04925021,0.04748566,0,480.85869,426.60604)" /><path
       style="fill:none;fill-opacity:1;stroke:#000000;stroke-width:2.36203;stroke-dasharray:none;stroke-opacity:1"
       d="m 51.010893,140.17034 c 0.310598,-1.27893 0.621193,-2.55785 1.32157,-3.78198 0.700378,-1.22413 1.790488,-2.39341 3.474429,-2.83798 1.683941,-0.44458 3.961604,-0.16444 6.263695,0.0548 2.30209,0.21925 4.628471,0.37759 6.942743,0.33495 2.314272,-0.0426 4.616292,-0.28623 6.632141,-0.49329 2.015848,-0.20707 3.745411,-0.37759 5.353218,-0.067 1.607808,0.3106 3.093768,1.1023 4.147367,2.22899 1.053598,1.12669 1.674779,2.58829 2.295972,4.04992"
       id="path69-7-3-2-7-1"
       transform="matrix(0,-0.04925021,0.04748566,0,480.85869,426.60604)" /><ellipse
       style="fill:none;fill-opacity:1;stroke:#000000;stroke-width:0.114228;stroke-dasharray:none;stroke-opacity:1"
       id="path72-73-9-5-8-4"
       cx="-425.01974"
       cy="484.0524"
       transform="rotate(-90)"
       rx="0.24504612"
       ry="0.23626655" /><ellipse
       style="fill:none;fill-opacity:1;stroke:#000000;stroke-width:0.114228;stroke-dasharray:none;stroke-opacity:1"
       id="path72-73-0-8-5-5-8"
       cx="-425.29532"
       cy="484.92862"
       transform="rotate(-90)"
       rx="0.24504612"
       ry="0.23626655" /><ellipse
       style="fill:none;fill-opacity:1;stroke:#000000;stroke-width:0.114228;stroke-dasharray:none;stroke-opacity:1"
       id="path72-73-0-9-8-3-8-1"
       cx="-425.24142"
       cy="485.79883"
       transform="rotate(-90)"
       rx="0.24504612"
       ry="0.23626655" /><ellipse
       style="fill:none;fill-opacity:1;stroke:#000000;stroke-width:0.114228;stroke-dasharray:none;stroke-opacity:1"
       id="path72-73-0-9-5-0-3-3-9"
       cx="-424.80045"
       cy="486.56381"
       transform="rotate(-90)"
       rx="0.24504612"
       ry="0.23626655" /><ellipse
       style="fill:none;fill-opacity:1;stroke:#000000;stroke-width:0.114228;stroke-dasharray:none;stroke-opacity:1"
       id="path72-73-6-8-3-24-3"
       cx="421.46164"
       cy="484.02499"
       transform="matrix(0,1,1,0,0,0)"
       rx="0.24504612"
       ry="0.23626655" /><ellipse
       style="fill:none;fill-opacity:1;stroke:#000000;stroke-width:0.114228;stroke-dasharray:none;stroke-opacity:1"
       id="path72-73-0-4-7-7-1-5"
       cx="421.18604"
       cy="484.90121"
       transform="matrix(0,1,1,0,0,0)"
       rx="0.24504612"
       ry="0.23626655" /><ellipse
       style="fill:none;fill-opacity:1;stroke:#000000;stroke-width:0.114228;stroke-dasharray:none;stroke-opacity:1"
       id="path72-73-0-9-0-7-4-1-9"
       cx="421.23993"
       cy="485.77139"
       transform="matrix(0,1,1,0,0,0)"
       rx="0.24504612"
       ry="0.23626655" /><ellipse
       style="fill:none;fill-opacity:1;stroke:#000000;stroke-width:0.114228;stroke-dasharray:none;stroke-opacity:1"
       id="path72-73-0-9-5-6-8-3-5-7"
       cx="421.68091"
       cy="486.53641"
       transform="matrix(0,1,1,0,0,0)"
       rx="0.24504612"
       ry="0.23626655" /><path
       style="fill:none;fill-opacity:1;stroke:#000000;stroke-width:2.36203;stroke-dasharray:none;stroke-opacity:1"
       d="m 35.91701,41.02029 c -1.190448,1.147678 -3.050799,3.421441 -4.911151,5.695204 0,0 0.413411,3.100586 0.413411,3.100586 -7.257503,12.724686 -14.514863,25.449121 -15.366535,38.876276 -0.851672,13.427154 4.702301,27.555684 11.596462,36.264744 6.894161,8.70905 15.127846,11.99765 23.361696,15.28632 0,0 0,0.87698 0,0.87698 5.943963,1.65651 11.887929,3.31303 18.014658,3.28865 6.12673,-0.0244 12.435973,-1.72958 18.745344,-3.43482 0,0 -0.292328,-1.31546 -0.292328,-1.31546 8.526178,-3.60536 17.052193,-7.21064 23.044993,-13.65412 5.9928,-6.44348 9.45185,-15.72446 10.60117,-25.1091 1.14933,-9.384648 -0.0112,-18.871823 -2.75534,-27.350744 -2.74413,-8.478922 -7.07161,-15.94872 -11.39918,-23.418666 0,0 -0.10335,-4.754232 -0.10335,-4.754232 0,0 -4.85758,-6.717937 -4.85758,-6.717937 0,0 -13.849286,8.371583 -13.849286,8.371583 0,0 0.414798,6.470113 0.414798,6.470113 2.850179,6.138847 5.700357,12.277693 8.221692,19.183972 2.521335,6.906279 4.713696,14.579535 3.946326,22.241063 -0.767372,7.661528 -4.494381,15.310418 -10.913505,20.438408 -6.419123,5.128 -15.529585,7.73446 -24.591874,7.05236 -9.062289,-0.68211 -18.075319,-4.65272 -23.580901,-11.26672 -5.505582,-6.61401 -7.503064,-15.870637 -6.345918,-24.701495 1.157147,-8.830859 5.46887,-17.235064 8.513951,-22.740565 3.045081,-5.5055 4.823363,-8.112021 6.601681,-10.718595 0,0 -0.292328,-5.554194 -0.292328,-5.554194 0,0 -11.985368,-7.600476 -11.985368,-7.600476 -0.520545,0.02159 -1.041091,0.04319 -2.231538,1.190865 z"
       id="path65-6-4-4-8"
       transform="matrix(0,-0.04925021,0.04748566,0,501.10053,437.09324)" /><path
       style="fill:none;fill-opacity:1;stroke:#000000;stroke-width:2.36203;stroke-dasharray:none;stroke-opacity:1"
       d="m 51.010893,140.17034 c 0.310598,-1.27893 0.621193,-2.55785 1.32157,-3.78198 0.700378,-1.22413 1.790488,-2.39341 3.474429,-2.83798 1.683941,-0.44458 3.961604,-0.16444 6.263695,0.0548 2.30209,0.21925 4.628471,0.37759 6.942743,0.33495 2.314272,-0.0426 4.616292,-0.28623 6.632141,-0.49329 2.015848,-0.20707 3.745411,-0.37759 5.353218,-0.067 1.607808,0.3106 3.093768,1.1023 4.147367,2.22899 1.053598,1.12669 1.674779,2.58829 2.295972,4.04992"
       id="path69-7-3-4-2"
       transform="matrix(0,-0.04925021,0.04748566,0,501.10053,437.09324)" /><ellipse
       style="fill:none;fill-opacity:1;stroke:#000000;stroke-width:0.114228;stroke-dasharray:none;stroke-opacity:1"
       id="path72-73-9-4-4"
       cx="-435.50696"
       cy="504.29422"
       transform="rotate(-90)"
       rx="0.24504612"
       ry="0.23626655" /><ellipse
       style="fill:none;fill-opacity:1;stroke:#000000;stroke-width:0.114228;stroke-dasharray:none;stroke-opacity:1"
       id="path72-73-0-8-2-50"
       cx="-435.78256"
       cy="505.17047"
       transform="rotate(-90)"
       rx="0.24504612"
       ry="0.23626655" /><ellipse
       style="fill:none;fill-opacity:1;stroke:#000000;stroke-width:0.114228;stroke-dasharray:none;stroke-opacity:1"
       id="path72-73-0-9-8-7-4"
       cx="-435.72864"
       cy="506.04065"
       transform="rotate(-90)"
       rx="0.24504612"
       ry="0.23626655" /><ellipse
       style="fill:none;fill-opacity:1;stroke:#000000;stroke-width:0.114228;stroke-dasharray:none;stroke-opacity:1"
       id="path72-73-0-9-5-0-9-4"
       cx="-435.28766"
       cy="506.80563"
       transform="rotate(-90)"
       rx="0.24504612"
       ry="0.23626655" /><ellipse
       style="fill:none;fill-opacity:1;stroke:#000000;stroke-width:0.114228;stroke-dasharray:none;stroke-opacity:1"
       id="path72-73-6-8-2-0"
       cx="431.94885"
       cy="504.26682"
       transform="matrix(0,1,1,0,0,0)"
       rx="0.24504612"
       ry="0.23626655" /><ellipse
       style="fill:none;fill-opacity:1;stroke:#000000;stroke-width:0.114228;stroke-dasharray:none;stroke-opacity:1"
       id="path72-73-0-4-7-3-5"
       cx="431.67325"
       cy="505.14307"
       transform="matrix(0,1,1,0,0,0)"
       rx="0.24504612"
       ry="0.23626655" /><ellipse
       style="fill:none;fill-opacity:1;stroke:#000000;stroke-width:0.114228;stroke-dasharray:none;stroke-opacity:1"
       id="path72-73-0-9-0-7-7-1"
       cx="431.72717"
       cy="506.01324"
       transform="matrix(0,1,1,0,0,0)"
       rx="0.24504612"
       ry="0.23626655" /><ellipse
       style="fill:none;fill-opacity:1;stroke:#000000;stroke-width:0.114228;stroke-dasharray:none;stroke-opacity:1"
       id="path72-73-0-9-5-6-8-31-1"
       cx="432.16812"
       cy="506.77823"
       transform="matrix(0,1,1,0,0,0)"
       rx="0.24504612"
       ry="0.23626655" /><path
       style="fill:none;fill-opacity:1;stroke:#000000;stroke-width:2.36203;stroke-dasharray:none;stroke-opacity:1"
       d="m 35.91701,41.02029 c -1.190448,1.147678 -3.050799,3.421441 -4.911151,5.695204 0,0 0.413411,3.100586 0.413411,3.100586 -7.257503,12.724686 -14.514863,25.449121 -15.366535,38.876276 -0.851672,13.427154 4.702301,27.555684 11.596462,36.264744 6.894161,8.70905 15.127846,11.99765 23.361696,15.28632 0,0 0,0.87698 0,0.87698 5.943963,1.65651 11.887929,3.31303 18.014658,3.28865 6.12673,-0.0244 12.435973,-1.72958 18.745344,-3.43482 0,0 -0.292328,-1.31546 -0.292328,-1.31546 8.526178,-3.60536 17.052193,-7.21064 23.044993,-13.65412 5.9928,-6.44348 9.45185,-15.72446 10.60117,-25.1091 1.14933,-9.384648 -0.0112,-18.871823 -2.75534,-27.350744 -2.74413,-8.478922 -7.07161,-15.94872 -11.39918,-23.418666 0,0 -0.10335,-4.754232 -0.10335,-4.754232 0,0 -4.85758,-6.717937 -4.85758,-6.717937 0,0 -13.849286,8.371583 -13.849286,8.371583 0,0 0.414798,6.470113 0.414798,6.470113 2.850179,6.138847 5.700357,12.277693 8.221692,19.183972 2.521335,6.906279 4.713696,14.579535 3.946326,22.241063 -0.767372,7.661528 -4.494381,15.310418 -10.913505,20.438408 -6.419123,5.128 -15.529585,7.73446 -24.591874,7.05236 -9.062289,-0.68211 -18.075319,-4.65272 -23.580901,-11.26672 -5.505582,-6.61401 -7.503064,-15.870637 -6.345918,-24.701495 1.157147,-8.830859 5.46887,-17.235064 8.513951,-22.740565 3.045081,-5.5055 4.823363,-8.112021 6.601681,-10.718595 0,0 -0.292328,-5.554194 -0.292328,-5.554194 0,0 -11.985368,-7.600476 -11.985368,-7.600476 -0.520545,0.02159 -1.041091,0.04319 -2.231538,1.190865 z"
       id="path65-6-4-9-5-5"
       transform="matrix(0,-0.04925021,0.04748566,0,521.16224,426.77854)" /><path
       style="fill:none;fill-opacity:1;stroke:#000000;stroke-width:2.36203;stroke-dasharray:none;stroke-opacity:1"
       d="m 51.010893,140.17034 c 0.310598,-1.27893 0.621193,-2.55785 1.32157,-3.78198 0.700378,-1.22413 1.790488,-2.39341 3.474429,-2.83798 1.683941,-0.44458 3.961604,-0.16444 6.263695,0.0548 2.30209,0.21925 4.628471,0.37759 6.942743,0.33495 2.314272,-0.0426 4.616292,-0.28623 6.632141,-0.49329 2.015848,-0.20707 3.745411,-0.37759 5.353218,-0.067 1.607808,0.3106 3.093768,1.1023 4.147367,2.22899 1.053598,1.12669 1.674779,2.58829 2.295972,4.04992"
       id="path69-7-3-2-7-9"
       transform="matrix(0,-0.04925021,0.04748566,0,521.16224,426.77854)" /><ellipse
       style="fill:none;fill-opacity:1;stroke:#000000;stroke-width:0.114228;stroke-dasharray:none;stroke-opacity:1"
       id="path72-73-9-5-8-0"
       cx="-425.19223"
       cy="524.35596"
       transform="rotate(-90)"
       rx="0.24504612"
       ry="0.23626655" /><ellipse
       style="fill:none;fill-opacity:1;stroke:#000000;stroke-width:0.114228;stroke-dasharray:none;stroke-opacity:1"
       id="path72-73-0-8-5-5-83"
       cx="-425.46783"
       cy="525.23224"
       transform="rotate(-90)"
       rx="0.24504612"
       ry="0.23626655" /><ellipse
       style="fill:none;fill-opacity:1;stroke:#000000;stroke-width:0.114228;stroke-dasharray:none;stroke-opacity:1"
       id="path72-73-0-9-8-3-8-8"
       cx="-425.41394"
       cy="526.10236"
       transform="rotate(-90)"
       rx="0.24504612"
       ry="0.23626655" /><ellipse
       style="fill:none;fill-opacity:1;stroke:#000000;stroke-width:0.114228;stroke-dasharray:none;stroke-opacity:1"
       id="path72-73-0-9-5-0-3-3-7"
       cx="-424.97296"
       cy="526.86731"
       transform="rotate(-90)"
       rx="0.24504612"
       ry="0.23626655" /><ellipse
       style="fill:none;fill-opacity:1;stroke:#000000;stroke-width:0.114228;stroke-dasharray:none;stroke-opacity:1"
       id="path72-73-6-8-3-24-2"
       cx="421.63412"
       cy="524.32855"
       transform="matrix(0,1,1,0,0,0)"
       rx="0.24504612"
       ry="0.23626655" /><ellipse
       style="fill:none;fill-opacity:1;stroke:#000000;stroke-width:0.114228;stroke-dasharray:none;stroke-opacity:1"
       id="path72-73-0-4-7-7-1-6"
       cx="421.35855"
       cy="525.20483"
       transform="matrix(0,1,1,0,0,0)"
       rx="0.24504612"
       ry="0.23626655" /><ellipse
       style="fill:none;fill-opacity:1;stroke:#000000;stroke-width:0.114228;stroke-dasharray:none;stroke-opacity:1"
       id="path72-73-0-9-0-7-4-1-93"
       cx="421.41245"
       cy="526.07495"
       transform="matrix(0,1,1,0,0,0)"
       rx="0.24504612"
       ry="0.23626655" /><ellipse
       style="fill:none;fill-opacity:1;stroke:#000000;stroke-width:0.114228;stroke-dasharray:none;stroke-opacity:1"
       id="path72-73-0-9-5-6-8-3-5-8"
       cx="421.85342"
       cy="526.8399"
       transform="matrix(0,1,1,0,0,0)"
       rx="0.24504612"
       ry="0.23626655" /><path
       style="fill:none;fill-opacity:1;stroke:#000000;stroke-width:2.36203;stroke-dasharray:none;stroke-opacity:1"
       d="m 35.91701,41.02029 c -1.190448,1.147678 -3.050799,3.421441 -4.911151,5.695204 0,0 0.413411,3.100586 0.413411,3.100586 -7.257503,12.724686 -14.514863,25.449121 -15.366535,38.876276 -0.851672,13.427154 4.702301,27.555684 11.596462,36.264744 6.894161,8.70905 15.127846,11.99765 23.361696,15.28632 0,0 0,0.87698 0,0.87698 5.943963,1.65651 11.887929,3.31303 18.014658,3.28865 6.12673,-0.0244 12.435973,-1.72958 18.745344,-3.43482 0,0 -0.292328,-1.31546 -0.292328,-1.31546 8.526178,-3.60536 17.052193,-7.21064 23.044993,-13.65412 5.9928,-6.44348 9.45185,-15.72446 10.60117,-25.1091 1.14933,-9.384648 -0.0112,-18.871823 -2.75534,-27.350744 -2.74413,-8.478922 -7.07161,-15.94872 -11.39918,-23.418666 0,0 -0.10335,-4.754232 -0.10335,-4.754232 0,0 -4.85758,-6.717937 -4.85758,-6.717937 0,0 -13.849286,8.371583 -13.849286,8.371583 0,0 0.414798,6.470113 0.414798,6.470113 2.850179,6.138847 5.700357,12.277693 8.221692,19.183972 2.521335,6.906279 4.713696,14.579535 3.946326,22.241063 -0.767372,7.661528 -4.494381,15.310418 -10.913505,20.438408 -6.419123,5.128 -15.529585,7.73446 -24.591874,7.05236 -9.062289,-0.68211 -18.075319,-4.65272 -23.580901,-11.26672 -5.505582,-6.61401 -7.503064,-15.870637 -6.345918,-24.701495 1.157147,-8.830859 5.46887,-17.235064 8.513951,-22.740565 3.045081,-5.5055 4.823363,-8.112021 6.601681,-10.718595 0,0 -0.292328,-5.554194 -0.292328,-5.554194 0,0 -11.985368,-7.600476 -11.985368,-7.600476 -0.520545,0.02159 -1.041091,0.04319 -2.231538,1.190865 z"
       id="path65-6-4-4-1-1"
       transform="matrix(0,-0.04925021,0.04748566,0,543.07092,436.92645)" /><path
       style="fill:none;fill-opacity:1;stroke:#000000;stroke-width:2.36203;stroke-dasharray:none;stroke-opacity:1"
       d="m 51.010893,140.17034 c 0.310598,-1.27893 0.621193,-2.55785 1.32157,-3.78198 0.700378,-1.22413 1.790488,-2.39341 3.474429,-2.83798 1.683941,-0.44458 3.961604,-0.16444 6.263695,0.0548 2.30209,0.21925 4.628471,0.37759 6.942743,0.33495 2.314272,-0.0426 4.616292,-0.28623 6.632141,-0.49329 2.015848,-0.20707 3.745411,-0.37759 5.353218,-0.067 1.607808,0.3106 3.093768,1.1023 4.147367,2.22899 1.053598,1.12669 1.674779,2.58829 2.295972,4.04992"
       id="path69-7-3-4-4-0"
       transform="matrix(0,-0.04925021,0.04748566,0,543.07092,436.92645)" /><ellipse
       style="fill:none;fill-opacity:1;stroke:#000000;stroke-width:0.114228;stroke-dasharray:none;stroke-opacity:1"
       id="path72-73-9-4-2-3"
       cx="-435.34012"
       cy="546.26465"
       transform="rotate(-90)"
       rx="0.24504612"
       ry="0.23626655" /><ellipse
       style="fill:none;fill-opacity:1;stroke:#000000;stroke-width:0.114228;stroke-dasharray:none;stroke-opacity:1"
       id="path72-73-0-8-2-5-3"
       cx="-435.61575"
       cy="547.14087"
       transform="rotate(-90)"
       rx="0.24504612"
       ry="0.23626655" /><ellipse
       style="fill:none;fill-opacity:1;stroke:#000000;stroke-width:0.114228;stroke-dasharray:none;stroke-opacity:1"
       id="path72-73-0-9-8-7-3-8"
       cx="-435.56186"
       cy="548.01105"
       transform="rotate(-90)"
       rx="0.24504612"
       ry="0.23626655" /><ellipse
       style="fill:none;fill-opacity:1;stroke:#000000;stroke-width:0.114228;stroke-dasharray:none;stroke-opacity:1"
       id="path72-73-0-9-5-0-9-8-4"
       cx="-435.12088"
       cy="548.77606"
       transform="rotate(-90)"
       rx="0.24504612"
       ry="0.23626655" /><ellipse
       style="fill:none;fill-opacity:1;stroke:#000000;stroke-width:0.114228;stroke-dasharray:none;stroke-opacity:1"
       id="path72-73-6-8-2-9-8"
       cx="431.78204"
       cy="546.23724"
       transform="matrix(0,1,1,0,0,0)"
       rx="0.24504612"
       ry="0.23626655" /><ellipse
       style="fill:none;fill-opacity:1;stroke:#000000;stroke-width:0.114228;stroke-dasharray:none;stroke-opacity:1"
       id="path72-73-0-4-7-3-2-0"
       cx="431.50644"
       cy="547.11346"
       transform="matrix(0,1,1,0,0,0)"
       rx="0.24504612"
       ry="0.23626655" /><ellipse
       style="fill:none;fill-opacity:1;stroke:#000000;stroke-width:0.114228;stroke-dasharray:none;stroke-opacity:1"
       id="path72-73-0-9-0-7-7-8-1"
       cx="431.56036"
       cy="547.98364"
       transform="matrix(0,1,1,0,0,0)"
       rx="0.24504612"
       ry="0.23626655" /><ellipse
       style="fill:none;fill-opacity:1;stroke:#000000;stroke-width:0.114228;stroke-dasharray:none;stroke-opacity:1"
       id="path72-73-0-9-5-6-8-31-7-5"
       cx="432.00131"
       cy="548.74866"
       transform="matrix(0,1,1,0,0,0)"
       rx="0.24504612"
       ry="0.23626655" /><path
       style="fill:none;fill-opacity:1;stroke:#000000;stroke-width:2.36203;stroke-dasharray:none;stroke-opacity:1"
       d="m 35.91701,41.02029 c -1.190448,1.147678 -3.050799,3.421441 -4.911151,5.695204 0,0 0.413411,3.100586 0.413411,3.100586 -7.257503,12.724686 -14.514863,25.449121 -15.366535,38.876276 -0.851672,13.427154 4.702301,27.555684 11.596462,36.264744 6.894161,8.70905 15.127846,11.99765 23.361696,15.28632 0,0 0,0.87698 0,0.87698 5.943963,1.65651 11.887929,3.31303 18.014658,3.28865 6.12673,-0.0244 12.435973,-1.72958 18.745344,-3.43482 0,0 -0.292328,-1.31546 -0.292328,-1.31546 8.526178,-3.60536 17.052193,-7.21064 23.044993,-13.65412 5.9928,-6.44348 9.45185,-15.72446 10.60117,-25.1091 1.14933,-9.384648 -0.0112,-18.871823 -2.75534,-27.350744 -2.74413,-8.478922 -7.07161,-15.94872 -11.39918,-23.418666 0,0 -0.10335,-4.754232 -0.10335,-4.754232 0,0 -4.85758,-6.717937 -4.85758,-6.717937 0,0 -13.849286,8.371583 -13.849286,8.371583 0,0 0.414798,6.470113 0.414798,6.470113 2.850179,6.138847 5.700357,12.277693 8.221692,19.183972 2.521335,6.906279 4.713696,14.579535 3.946326,22.241063 -0.767372,7.661528 -4.494381,15.310418 -10.913505,20.438408 -6.419123,5.128 -15.529585,7.73446 -24.591874,7.05236 -9.062289,-0.68211 -18.075319,-4.65272 -23.580901,-11.26672 -5.505582,-6.61401 -7.503064,-15.870637 -6.345918,-24.701495 1.157147,-8.830859 5.46887,-17.235064 8.513951,-22.740565 3.045081,-5.5055 4.823363,-8.112021 6.601681,-10.718595 0,0 -0.292328,-5.554194 -0.292328,-5.554194 0,0 -11.985368,-7.600476 -11.985368,-7.600476 -0.520545,0.02159 -1.041091,0.04319 -2.231538,1.190865 z"
       id="path65-6-4-9-5-0-4"
       transform="matrix(0,-0.04925021,0.04748566,0,563.13262,426.61174)" /><path
       style="fill:none;fill-opacity:1;stroke:#000000;stroke-width:2.36203;stroke-dasharray:none;stroke-opacity:1"
       d="m 51.010893,140.17034 c 0.310598,-1.27893 0.621193,-2.55785 1.32157,-3.78198 0.700378,-1.22413 1.790488,-2.39341 3.474429,-2.83798 1.683941,-0.44458 3.961604,-0.16444 6.263695,0.0548 2.30209,0.21925 4.628471,0.37759 6.942743,0.33495 2.314272,-0.0426 4.616292,-0.28623 6.632141,-0.49329 2.015848,-0.20707 3.745411,-0.37759 5.353218,-0.067 1.607808,0.3106 3.093768,1.1023 4.147367,2.22899 1.053598,1.12669 1.674779,2.58829 2.295972,4.04992"
       id="path69-7-3-2-7-1-1"
       transform="matrix(0,-0.04925021,0.04748566,0,563.13262,426.61174)" /><ellipse
       style="fill:none;fill-opacity:1;stroke:#000000;stroke-width:0.114228;stroke-dasharray:none;stroke-opacity:1"
       id="path72-73-9-5-8-4-3"
       cx="-425.02545"
       cy="566.32629"
       transform="rotate(-90)"
       rx="0.24504612"
       ry="0.23626655" /><ellipse
       style="fill:none;fill-opacity:1;stroke:#000000;stroke-width:0.114228;stroke-dasharray:none;stroke-opacity:1"
       id="path72-73-0-8-5-5-8-7"
       cx="-425.30103"
       cy="567.20251"
       transform="rotate(-90)"
       rx="0.24504612"
       ry="0.23626655" /><ellipse
       style="fill:none;fill-opacity:1;stroke:#000000;stroke-width:0.114228;stroke-dasharray:none;stroke-opacity:1"
       id="path72-73-0-9-8-3-8-1-3"
       cx="-425.24713"
       cy="568.07275"
       transform="rotate(-90)"
       rx="0.24504612"
       ry="0.23626655" /><ellipse
       style="fill:none;fill-opacity:1;stroke:#000000;stroke-width:0.114228;stroke-dasharray:none;stroke-opacity:1"
       id="path72-73-0-9-5-0-3-3-9-5"
       cx="-424.80615"
       cy="568.83771"
       transform="rotate(-90)"
       rx="0.24504612"
       ry="0.23626655" /><ellipse
       style="fill:none;fill-opacity:1;stroke:#000000;stroke-width:0.114228;stroke-dasharray:none;stroke-opacity:1"
       id="path72-73-6-8-3-24-3-8"
       cx="421.46732"
       cy="566.29889"
       transform="matrix(0,1,1,0,0,0)"
       rx="0.24504612"
       ry="0.23626655" /><ellipse
       style="fill:none;fill-opacity:1;stroke:#000000;stroke-width:0.114228;stroke-dasharray:none;stroke-opacity:1"
       id="path72-73-0-4-7-7-1-5-5"
       cx="421.19174"
       cy="567.17511"
       transform="matrix(0,1,1,0,0,0)"
       rx="0.24504612"
       ry="0.23626655" /><ellipse
       style="fill:none;fill-opacity:1;stroke:#000000;stroke-width:0.114228;stroke-dasharray:none;stroke-opacity:1"
       id="path72-73-0-9-0-7-4-1-9-6"
       cx="421.24564"
       cy="568.04529"
       transform="matrix(0,1,1,0,0,0)"
       rx="0.24504612"
       ry="0.23626655" /><ellipse
       style="fill:none;fill-opacity:1;stroke:#000000;stroke-width:0.114228;stroke-dasharray:none;stroke-opacity:1"
       id="path72-73-0-9-5-6-8-3-5-7-9"
       cx="421.68661"
       cy="568.8103"
       transform="matrix(0,1,1,0,0,0)"
       rx="0.24504612"
       ry="0.23626655" /><path
       style="fill:none;fill-opacity:1;stroke:#000000;stroke-width:2.36203;stroke-dasharray:none;stroke-opacity:1"
       d="m 35.91701,41.02029 c -1.190448,1.147678 -3.050799,3.421441 -4.911151,5.695204 0,0 0.413411,3.100586 0.413411,3.100586 -7.257503,12.724686 -14.514863,25.449121 -15.366535,38.876276 -0.851672,13.427154 4.702301,27.555684 11.596462,36.264744 6.894161,8.70905 15.127846,11.99765 23.361696,15.28632 0,0 0,0.87698 0,0.87698 5.943963,1.65651 11.887929,3.31303 18.014658,3.28865 6.12673,-0.0244 12.435973,-1.72958 18.745344,-3.43482 0,0 -0.292328,-1.31546 -0.292328,-1.31546 8.526178,-3.60536 17.052193,-7.21064 23.044993,-13.65412 5.9928,-6.44348 9.45185,-15.72446 10.60117,-25.1091 1.14933,-9.384648 -0.0112,-18.871823 -2.75534,-27.350744 -2.74413,-8.478922 -7.07161,-15.94872 -11.39918,-23.418666 0,0 -0.10335,-4.754232 -0.10335,-4.754232 0,0 -4.85758,-6.717937 -4.85758,-6.717937 0,0 -13.849286,8.371583 -13.849286,8.371583 0,0 0.414798,6.470113 0.414798,6.470113 2.850179,6.138847 5.700357,12.277693 8.221692,19.183972 2.521335,6.906279 4.713696,14.579535 3.946326,22.241063 -0.767372,7.661528 -4.494381,15.310418 -10.913505,20.438408 -6.419123,5.128 -15.529585,7.73446 -24.591874,7.05236 -9.062289,-0.68211 -18.075319,-4.65272 -23.580901,-11.26672 -5.505582,-6.61401 -7.503064,-15.870637 -6.345918,-24.701495 1.157147,-8.830859 5.46887,-17.235064 8.513951,-22.740565 3.045081,-5.5055 4.823363,-8.112021 6.601681,-10.718595 0,0 -0.292328,-5.554194 -0.292328,-5.554194 0,0 -11.985368,-7.600476 -11.985368,-7.600476 -0.520545,0.02159 -1.041091,0.04319 -2.231538,1.190865 z"
       id="path65-6-4-4-4"
       transform="matrix(0,-0.04925021,0.04748566,0,586.8679,437.01483)" /><path
       style="fill:none;fill-opacity:1;stroke:#000000;stroke-width:2.36203;stroke-dasharray:none;stroke-opacity:1"
       d="m 51.010893,140.17034 c 0.310598,-1.27893 0.621193,-2.55785 1.32157,-3.78198 0.700378,-1.22413 1.790488,-2.39341 3.474429,-2.83798 1.683941,-0.44458 3.961604,-0.16444 6.263695,0.0548 2.30209,0.21925 4.628471,0.37759 6.942743,0.33495 2.314272,-0.0426 4.616292,-0.28623 6.632141,-0.49329 2.015848,-0.20707 3.745411,-0.37759 5.353218,-0.067 1.607808,0.3106 3.093768,1.1023 4.147367,2.22899 1.053598,1.12669 1.674779,2.58829 2.295972,4.04992"
       id="path69-7-3-4-0"
       transform="matrix(0,-0.04925021,0.04748566,0,586.8679,437.01483)" /><ellipse
       style="fill:none;fill-opacity:1;stroke:#000000;stroke-width:0.114228;stroke-dasharray:none;stroke-opacity:1"
       id="path72-73-9-4-6"
       cx="-435.42853"
       cy="590.06158"
       transform="rotate(-90)"
       rx="0.24504612"
       ry="0.23626655" /><ellipse
       style="fill:none;fill-opacity:1;stroke:#000000;stroke-width:0.114228;stroke-dasharray:none;stroke-opacity:1"
       id="path72-73-0-8-2-1"
       cx="-435.70416"
       cy="590.93781"
       transform="rotate(-90)"
       rx="0.24504612"
       ry="0.23626655" /><ellipse
       style="fill:none;fill-opacity:1;stroke:#000000;stroke-width:0.114228;stroke-dasharray:none;stroke-opacity:1"
       id="path72-73-0-9-8-7-2"
       cx="-435.65024"
       cy="591.80798"
       transform="rotate(-90)"
       rx="0.24504612"
       ry="0.23626655" /><ellipse
       style="fill:none;fill-opacity:1;stroke:#000000;stroke-width:0.114228;stroke-dasharray:none;stroke-opacity:1"
       id="path72-73-0-9-5-0-9-1"
       cx="-435.20926"
       cy="592.573"
       transform="rotate(-90)"
       rx="0.24504612"
       ry="0.23626655" /><ellipse
       style="fill:none;fill-opacity:1;stroke:#000000;stroke-width:0.114228;stroke-dasharray:none;stroke-opacity:1"
       id="path72-73-6-8-2-4"
       cx="431.87045"
       cy="590.03418"
       transform="matrix(0,1,1,0,0,0)"
       rx="0.24504612"
       ry="0.23626655" /><ellipse
       style="fill:none;fill-opacity:1;stroke:#000000;stroke-width:0.114228;stroke-dasharray:none;stroke-opacity:1"
       id="path72-73-0-4-7-3-9"
       cx="431.59482"
       cy="590.9104"
       transform="matrix(0,1,1,0,0,0)"
       rx="0.24504612"
       ry="0.23626655" /><ellipse
       style="fill:none;fill-opacity:1;stroke:#000000;stroke-width:0.114228;stroke-dasharray:none;stroke-opacity:1"
       id="path72-73-0-9-0-7-7-5"
       cx="431.64871"
       cy="591.78058"
       transform="matrix(0,1,1,0,0,0)"
       rx="0.24504612"
       ry="0.23626655" /><ellipse
       style="fill:none;fill-opacity:1;stroke:#000000;stroke-width:0.114228;stroke-dasharray:none;stroke-opacity:1"
       id="path72-73-0-9-5-6-8-31-2"
       cx="432.08972"
       cy="592.54559"
       transform="matrix(0,1,1,0,0,0)"
       rx="0.24504612"
       ry="0.23626655" /><path
       style="fill:none;fill-opacity:1;stroke:#000000;stroke-width:2.36203;stroke-dasharray:none;stroke-opacity:1"
       d="m 35.91701,41.02029 c -1.190448,1.147678 -3.050799,3.421441 -4.911151,5.695204 0,0 0.413411,3.100586 0.413411,3.100586 -7.257503,12.724686 -14.514863,25.449121 -15.366535,38.876276 -0.851672,13.427154 4.702301,27.555684 11.596462,36.264744 6.894161,8.70905 15.127846,11.99765 23.361696,15.28632 0,0 0,0.87698 0,0.87698 5.943963,1.65651 11.887929,3.31303 18.014658,3.28865 6.12673,-0.0244 12.435973,-1.72958 18.745344,-3.43482 0,0 -0.292328,-1.31546 -0.292328,-1.31546 8.526178,-3.60536 17.052193,-7.21064 23.044993,-13.65412 5.9928,-6.44348 9.45185,-15.72446 10.60117,-25.1091 1.14933,-9.384648 -0.0112,-18.871823 -2.75534,-27.350744 -2.74413,-8.478922 -7.07161,-15.94872 -11.39918,-23.418666 0,0 -0.10335,-4.754232 -0.10335,-4.754232 0,0 -4.85758,-6.717937 -4.85758,-6.717937 0,0 -13.849286,8.371583 -13.849286,8.371583 0,0 0.414798,6.470113 0.414798,6.470113 2.850179,6.138847 5.700357,12.277693 8.221692,19.183972 2.521335,6.906279 4.713696,14.579535 3.946326,22.241063 -0.767372,7.661528 -4.494381,15.310418 -10.913505,20.438408 -6.419123,5.128 -15.529585,7.73446 -24.591874,7.05236 -9.062289,-0.68211 -18.075319,-4.65272 -23.580901,-11.26672 -5.505582,-6.61401 -7.503064,-15.870637 -6.345918,-24.701495 1.157147,-8.830859 5.46887,-17.235064 8.513951,-22.740565 3.045081,-5.5055 4.823363,-8.112021 6.601681,-10.718595 0,0 -0.292328,-5.554194 -0.292328,-5.554194 0,0 -11.985368,-7.600476 -11.985368,-7.600476 -0.520545,0.02159 -1.041091,0.04319 -2.231538,1.190865 z"
       id="path65-6-4-9-5-3"
       transform="matrix(0,-0.04925021,0.04748566,0,606.92962,426.70013)" /><path
       style="fill:none;fill-opacity:1;stroke:#000000;stroke-width:2.36203;stroke-dasharray:none;stroke-opacity:1"
       d="m 51.010893,140.17034 c 0.310598,-1.27893 0.621193,-2.55785 1.32157,-3.78198 0.700378,-1.22413 1.790488,-2.39341 3.474429,-2.83798 1.683941,-0.44458 3.961604,-0.16444 6.263695,0.0548 2.30209,0.21925 4.628471,0.37759 6.942743,0.33495 2.314272,-0.0426 4.616292,-0.28623 6.632141,-0.49329 2.015848,-0.20707 3.745411,-0.37759 5.353218,-0.067 1.607808,0.3106 3.093768,1.1023 4.147367,2.22899 1.053598,1.12669 1.674779,2.58829 2.295972,4.04992"
       id="path69-7-3-2-7-4"
       transform="matrix(0,-0.04925021,0.04748566,0,606.92962,426.70013)" /><ellipse
       style="fill:none;fill-opacity:1;stroke:#000000;stroke-width:0.114228;stroke-dasharray:none;stroke-opacity:1"
       id="path72-73-9-5-8-1"
       cx="-425.11383"
       cy="610.12335"
       transform="rotate(-90)"
       rx="0.24504612"
       ry="0.23626655" /><ellipse
       style="fill:none;fill-opacity:1;stroke:#000000;stroke-width:0.114228;stroke-dasharray:none;stroke-opacity:1"
       id="path72-73-0-8-5-5-5"
       cx="-425.38943"
       cy="610.99957"
       transform="rotate(-90)"
       rx="0.24504612"
       ry="0.23626655" /><ellipse
       style="fill:none;fill-opacity:1;stroke:#000000;stroke-width:0.114228;stroke-dasharray:none;stroke-opacity:1"
       id="path72-73-0-9-8-3-8-2"
       cx="-425.33554"
       cy="611.86975"
       transform="rotate(-90)"
       rx="0.24504612"
       ry="0.23626655" /><ellipse
       style="fill:none;fill-opacity:1;stroke:#000000;stroke-width:0.114228;stroke-dasharray:none;stroke-opacity:1"
       id="path72-73-0-9-5-0-3-3-3"
       cx="-424.89453"
       cy="612.63477"
       transform="rotate(-90)"
       rx="0.24504612"
       ry="0.23626655" /><ellipse
       style="fill:none;fill-opacity:1;stroke:#000000;stroke-width:0.114228;stroke-dasharray:none;stroke-opacity:1"
       id="path72-73-6-8-3-24-1"
       cx="421.55573"
       cy="610.09595"
       transform="matrix(0,1,1,0,0,0)"
       rx="0.24504612"
       ry="0.23626655" /><ellipse
       style="fill:none;fill-opacity:1;stroke:#000000;stroke-width:0.114228;stroke-dasharray:none;stroke-opacity:1"
       id="path72-73-0-4-7-7-1-68"
       cx="421.28012"
       cy="610.97223"
       transform="matrix(0,1,1,0,0,0)"
       rx="0.24504612"
       ry="0.23626655" /><ellipse
       style="fill:none;fill-opacity:1;stroke:#000000;stroke-width:0.114228;stroke-dasharray:none;stroke-opacity:1"
       id="path72-73-0-9-0-7-4-1-8"
       cx="421.33405"
       cy="611.84235"
       transform="matrix(0,1,1,0,0,0)"
       rx="0.24504612"
       ry="0.23626655" /><ellipse
       style="fill:none;fill-opacity:1;stroke:#000000;stroke-width:0.114228;stroke-dasharray:none;stroke-opacity:1"
       id="path72-73-0-9-5-6-8-3-5-2"
       cx="421.77499"
       cy="612.60736"
       transform="matrix(0,1,1,0,0,0)"
       rx="0.24504612"
       ry="0.23626655" /><path
       style="fill:none;fill-opacity:1;stroke:#000000;stroke-width:2.36203;stroke-dasharray:none;stroke-opacity:1"
       d="m 35.91701,41.02029 c -1.190448,1.147678 -3.050799,3.421441 -4.911151,5.695204 0,0 0.413411,3.100586 0.413411,3.100586 -7.257503,12.724686 -14.514863,25.449121 -15.366535,38.876276 -0.851672,13.427154 4.702301,27.555684 11.596462,36.264744 6.894161,8.70905 15.127846,11.99765 23.361696,15.28632 0,0 0,0.87698 0,0.87698 5.943963,1.65651 11.887929,3.31303 18.014658,3.28865 6.12673,-0.0244 12.435973,-1.72958 18.745344,-3.43482 0,0 -0.292328,-1.31546 -0.292328,-1.31546 8.526178,-3.60536 17.052193,-7.21064 23.044993,-13.65412 5.9928,-6.44348 9.45185,-15.72446 10.60117,-25.1091 1.14933,-9.384648 -0.0112,-18.871823 -2.75534,-27.350744 -2.74413,-8.478922 -7.07161,-15.94872 -11.39918,-23.418666 0,0 -0.10335,-4.754232 -0.10335,-4.754232 0,0 -4.85758,-6.717937 -4.85758,-6.717937 0,0 -13.849286,8.371583 -13.849286,8.371583 0,0 0.414798,6.470113 0.414798,6.470113 2.850179,6.138847 5.700357,12.277693 8.221692,19.183972 2.521335,6.906279 4.713696,14.579535 3.946326,22.241063 -0.767372,7.661528 -4.494381,15.310418 -10.913505,20.438408 -6.419123,5.128 -15.529585,7.73446 -24.591874,7.05236 -9.062289,-0.68211 -18.075319,-4.65272 -23.580901,-11.26672 -5.505582,-6.61401 -7.503064,-15.870637 -6.345918,-24.701495 1.157147,-8.830859 5.46887,-17.235064 8.513951,-22.740565 3.045081,-5.5055 4.823363,-8.112021 6.601681,-10.718595 0,0 -0.292328,-5.554194 -0.292328,-5.554194 0,0 -11.985368,-7.600476 -11.985368,-7.600476 -0.520545,0.02159 -1.041091,0.04319 -2.231538,1.190865 z"
       id="path65-6-4-4-1-7"
       transform="matrix(0,-0.04925021,0.04748566,0,628.83829,436.84804)" /><path
       style="fill:none;fill-opacity:1;stroke:#000000;stroke-width:2.36203;stroke-dasharray:none;stroke-opacity:1"
       d="m 51.010893,140.17034 c 0.310598,-1.27893 0.621193,-2.55785 1.32157,-3.78198 0.700378,-1.22413 1.790488,-2.39341 3.474429,-2.83798 1.683941,-0.44458 3.961604,-0.16444 6.263695,0.0548 2.30209,0.21925 4.628471,0.37759 6.942743,0.33495 2.314272,-0.0426 4.616292,-0.28623 6.632141,-0.49329 2.015848,-0.20707 3.745411,-0.37759 5.353218,-0.067 1.607808,0.3106 3.093768,1.1023 4.147367,2.22899 1.053598,1.12669 1.674779,2.58829 2.295972,4.04992"
       id="path69-7-3-4-4-7"
       transform="matrix(0,-0.04925021,0.04748566,0,628.83829,436.84804)" /><ellipse
       style="fill:none;fill-opacity:1;stroke:#000000;stroke-width:0.114228;stroke-dasharray:none;stroke-opacity:1"
       id="path72-73-9-4-2-1"
       cx="-435.26172"
       cy="632.03198"
       transform="rotate(-90)"
       rx="0.24504612"
       ry="0.23626655" /><ellipse
       style="fill:none;fill-opacity:1;stroke:#000000;stroke-width:0.114228;stroke-dasharray:none;stroke-opacity:1"
       id="path72-73-0-8-2-5-2"
       cx="-435.53735"
       cy="632.9082"
       transform="rotate(-90)"
       rx="0.24504612"
       ry="0.23626655" /><ellipse
       style="fill:none;fill-opacity:1;stroke:#000000;stroke-width:0.114228;stroke-dasharray:none;stroke-opacity:1"
       id="path72-73-0-9-8-7-3-6"
       cx="-435.48343"
       cy="633.77838"
       transform="rotate(-90)"
       rx="0.24504612"
       ry="0.23626655" /><ellipse
       style="fill:none;fill-opacity:1;stroke:#000000;stroke-width:0.114228;stroke-dasharray:none;stroke-opacity:1"
       id="path72-73-0-9-5-0-9-8-0"
       cx="-435.04248"
       cy="634.54346"
       transform="rotate(-90)"
       rx="0.24504612"
       ry="0.23626655" /><ellipse
       style="fill:none;fill-opacity:1;stroke:#000000;stroke-width:0.114228;stroke-dasharray:none;stroke-opacity:1"
       id="path72-73-6-8-2-9-4"
       cx="431.70364"
       cy="632.00452"
       transform="matrix(0,1,1,0,0,0)"
       rx="0.24504612"
       ry="0.23626655" /><ellipse
       style="fill:none;fill-opacity:1;stroke:#000000;stroke-width:0.114228;stroke-dasharray:none;stroke-opacity:1"
       id="path72-73-0-4-7-3-2-9"
       cx="431.42804"
       cy="632.8808"
       transform="matrix(0,1,1,0,0,0)"
       rx="0.24504612"
       ry="0.23626655" /><ellipse
       style="fill:none;fill-opacity:1;stroke:#000000;stroke-width:0.114228;stroke-dasharray:none;stroke-opacity:1"
       id="path72-73-0-9-0-7-7-8-4"
       cx="431.48196"
       cy="633.75098"
       transform="matrix(0,1,1,0,0,0)"
       rx="0.24504612"
       ry="0.23626655" /><ellipse
       style="fill:none;fill-opacity:1;stroke:#000000;stroke-width:0.114228;stroke-dasharray:none;stroke-opacity:1"
       id="path72-73-0-9-5-6-8-31-7-6"
       cx="431.92291"
       cy="634.51605"
       transform="matrix(0,1,1,0,0,0)"
       rx="0.24504612"
       ry="0.23626655" /><path
       style="fill:none;fill-opacity:1;stroke:#000000;stroke-width:2.36203;stroke-dasharray:none;stroke-opacity:1"
       d="m 35.91701,41.02029 c -1.190448,1.147678 -3.050799,3.421441 -4.911151,5.695204 0,0 0.413411,3.100586 0.413411,3.100586 -7.257503,12.724686 -14.514863,25.449121 -15.366535,38.876276 -0.851672,13.427154 4.702301,27.555684 11.596462,36.264744 6.894161,8.70905 15.127846,11.99765 23.361696,15.28632 0,0 0,0.87698 0,0.87698 5.943963,1.65651 11.887929,3.31303 18.014658,3.28865 6.12673,-0.0244 12.435973,-1.72958 18.745344,-3.43482 0,0 -0.292328,-1.31546 -0.292328,-1.31546 8.526178,-3.60536 17.052193,-7.21064 23.044993,-13.65412 5.9928,-6.44348 9.45185,-15.72446 10.60117,-25.1091 1.14933,-9.384648 -0.0112,-18.871823 -2.75534,-27.350744 -2.74413,-8.478922 -7.07161,-15.94872 -11.39918,-23.418666 0,0 -0.10335,-4.754232 -0.10335,-4.754232 0,0 -4.85758,-6.717937 -4.85758,-6.717937 0,0 -13.849286,8.371583 -13.849286,8.371583 0,0 0.414798,6.470113 0.414798,6.470113 2.850179,6.138847 5.700357,12.277693 8.221692,19.183972 2.521335,6.906279 4.713696,14.579535 3.946326,22.241063 -0.767372,7.661528 -4.494381,15.310418 -10.913505,20.438408 -6.419123,5.128 -15.529585,7.73446 -24.591874,7.05236 -9.062289,-0.68211 -18.075319,-4.65272 -23.580901,-11.26672 -5.505582,-6.61401 -7.503064,-15.870637 -6.345918,-24.701495 1.157147,-8.830859 5.46887,-17.235064 8.513951,-22.740565 3.045081,-5.5055 4.823363,-8.112021 6.601681,-10.718595 0,0 -0.292328,-5.554194 -0.292328,-5.554194 0,0 -11.985368,-7.600476 -11.985368,-7.600476 -0.520545,0.02159 -1.041091,0.04319 -2.231538,1.190865 z"
       id="path65-6-4-9-5-0-0"
       transform="matrix(0,-0.04925021,0.04748566,0,648.89999,426.53333)" /><path
       style="fill:none;fill-opacity:1;stroke:#000000;stroke-width:2.36203;stroke-dasharray:none;stroke-opacity:1"
       d="m 51.010893,140.17034 c 0.310598,-1.27893 0.621193,-2.55785 1.32157,-3.78198 0.700378,-1.22413 1.790488,-2.39341 3.474429,-2.83798 1.683941,-0.44458 3.961604,-0.16444 6.263695,0.0548 2.30209,0.21925 4.628471,0.37759 6.942743,0.33495 2.314272,-0.0426 4.616292,-0.28623 6.632141,-0.49329 2.015848,-0.20707 3.745411,-0.37759 5.353218,-0.067 1.607808,0.3106 3.093768,1.1023 4.147367,2.22899 1.053598,1.12669 1.674779,2.58829 2.295972,4.04992"
       id="path69-7-3-2-7-1-3"
       transform="matrix(0,-0.04925021,0.04748566,0,648.89999,426.53333)" /><ellipse
       style="fill:none;fill-opacity:1;stroke:#000000;stroke-width:0.114228;stroke-dasharray:none;stroke-opacity:1"
       id="path72-73-9-5-8-4-6"
       cx="-424.94705"
       cy="652.09375"
       transform="rotate(-90)"
       rx="0.24504612"
       ry="0.23626655" /><ellipse
       style="fill:none;fill-opacity:1;stroke:#000000;stroke-width:0.114228;stroke-dasharray:none;stroke-opacity:1"
       id="path72-73-0-8-5-5-8-2"
       cx="-425.22263"
       cy="652.96997"
       transform="rotate(-90)"
       rx="0.24504612"
       ry="0.23626655" /><ellipse
       style="fill:none;fill-opacity:1;stroke:#000000;stroke-width:0.114228;stroke-dasharray:none;stroke-opacity:1"
       id="path72-73-0-9-8-3-8-1-4"
       cx="-425.16873"
       cy="653.84015"
       transform="rotate(-90)"
       rx="0.24504612"
       ry="0.23626655" /><ellipse
       style="fill:none;fill-opacity:1;stroke:#000000;stroke-width:0.114228;stroke-dasharray:none;stroke-opacity:1"
       id="path72-73-0-9-5-0-3-3-9-58"
       cx="-424.72775"
       cy="654.6051"
       transform="rotate(-90)"
       rx="0.24504612"
       ry="0.23626655" /><ellipse
       style="fill:none;fill-opacity:1;stroke:#000000;stroke-width:0.114228;stroke-dasharray:none;stroke-opacity:1"
       id="path72-73-6-8-3-24-3-81"
       cx="421.38892"
       cy="652.06635"
       transform="matrix(0,1,1,0,0,0)"
       rx="0.24504612"
       ry="0.23626655" /><ellipse
       style="fill:none;fill-opacity:1;stroke:#000000;stroke-width:0.114228;stroke-dasharray:none;stroke-opacity:1"
       id="path72-73-0-4-7-7-1-5-2"
       cx="421.11334"
       cy="652.94257"
       transform="matrix(0,1,1,0,0,0)"
       rx="0.24504612"
       ry="0.23626655" /><ellipse
       style="fill:none;fill-opacity:1;stroke:#000000;stroke-width:0.114228;stroke-dasharray:none;stroke-opacity:1"
       id="path72-73-0-9-0-7-4-1-9-1"
       cx="421.16724"
       cy="653.81274"
       transform="matrix(0,1,1,0,0,0)"
       rx="0.24504612"
       ry="0.23626655" /><ellipse
       style="fill:none;fill-opacity:1;stroke:#000000;stroke-width:0.114228;stroke-dasharray:none;stroke-opacity:1"
       id="path72-73-0-9-5-6-8-3-5-7-4"
       cx="421.60822"
       cy="654.5777"
       transform="matrix(0,1,1,0,0,0)"
       rx="0.24504612"
       ry="0.23626655" /><path
       style="fill:none;fill-opacity:1;stroke:#000000;stroke-width:2.36203;stroke-dasharray:none;stroke-opacity:1"
       d="m 35.91701,41.02029 c -1.190448,1.147678 -3.050799,3.421441 -4.911151,5.695204 0,0 0.413411,3.100586 0.413411,3.100586 -7.257503,12.724686 -14.514863,25.449121 -15.366535,38.876276 -0.851672,13.427154 4.702301,27.555684 11.596462,36.264744 6.894161,8.70905 15.127846,11.99765 23.361696,15.28632 0,0 0,0.87698 0,0.87698 5.943963,1.65651 11.887929,3.31303 18.014658,3.28865 6.12673,-0.0244 12.435973,-1.72958 18.745344,-3.43482 0,0 -0.292328,-1.31546 -0.292328,-1.31546 8.526178,-3.60536 17.052193,-7.21064 23.044993,-13.65412 5.9928,-6.44348 9.45185,-15.72446 10.60117,-25.1091 1.14933,-9.384648 -0.0112,-18.871823 -2.75534,-27.350744 -2.74413,-8.478922 -7.07161,-15.94872 -11.39918,-23.418666 0,0 -0.10335,-4.754232 -0.10335,-4.754232 0,0 -4.85758,-6.717937 -4.85758,-6.717937 0,0 -13.849286,8.371583 -13.849286,8.371583 0,0 0.414798,6.470113 0.414798,6.470113 2.850179,6.138847 5.700357,12.277693 8.221692,19.183972 2.521335,6.906279 4.713696,14.579535 3.946326,22.241063 -0.767372,7.661528 -4.494381,15.310418 -10.913505,20.438408 -6.419123,5.128 -15.529585,7.73446 -24.591874,7.05236 -9.062289,-0.68211 -18.075319,-4.65272 -23.580901,-11.26672 -5.505582,-6.61401 -7.503064,-15.870637 -6.345918,-24.701495 1.157147,-8.830859 5.46887,-17.235064 8.513951,-22.740565 3.045081,-5.5055 4.823363,-8.112021 6.601681,-10.718595 0,0 -0.292328,-5.554194 -0.292328,-5.554194 0,0 -11.985368,-7.600476 -11.985368,-7.600476 -0.520545,0.02159 -1.041091,0.04319 -2.231538,1.190865 z"
       id="path65-6-4-4-8-9"
       transform="matrix(0,-0.04925021,0.04748566,0,669.14183,437.02054)" /><path
       style="fill:none;fill-opacity:1;stroke:#000000;stroke-width:2.36203;stroke-dasharray:none;stroke-opacity:1"
       d="m 51.010893,140.17034 c 0.310598,-1.27893 0.621193,-2.55785 1.32157,-3.78198 0.700378,-1.22413 1.790488,-2.39341 3.474429,-2.83798 1.683941,-0.44458 3.961604,-0.16444 6.263695,0.0548 2.30209,0.21925 4.628471,0.37759 6.942743,0.33495 2.314272,-0.0426 4.616292,-0.28623 6.632141,-0.49329 2.015848,-0.20707 3.745411,-0.37759 5.353218,-0.067 1.607808,0.3106 3.093768,1.1023 4.147367,2.22899 1.053598,1.12669 1.674779,2.58829 2.295972,4.04992"
       id="path69-7-3-4-2-8"
       transform="matrix(0,-0.04925021,0.04748566,0,669.14183,437.02054)" /><ellipse
       style="fill:none;fill-opacity:1;stroke:#000000;stroke-width:0.114228;stroke-dasharray:none;stroke-opacity:1"
       id="path72-73-9-4-4-2"
       cx="-435.43427"
       cy="672.33551"
       transform="rotate(-90)"
       rx="0.24504612"
       ry="0.23626655" /><ellipse
       style="fill:none;fill-opacity:1;stroke:#000000;stroke-width:0.114228;stroke-dasharray:none;stroke-opacity:1"
       id="path72-73-0-8-2-50-4"
       cx="-435.70984"
       cy="673.21173"
       transform="rotate(-90)"
       rx="0.24504612"
       ry="0.23626655" /><ellipse
       style="fill:none;fill-opacity:1;stroke:#000000;stroke-width:0.114228;stroke-dasharray:none;stroke-opacity:1"
       id="path72-73-0-9-8-7-4-5"
       cx="-435.65594"
       cy="674.08197"
       transform="rotate(-90)"
       rx="0.24504612"
       ry="0.23626655" /><ellipse
       style="fill:none;fill-opacity:1;stroke:#000000;stroke-width:0.114228;stroke-dasharray:none;stroke-opacity:1"
       id="path72-73-0-9-5-0-9-4-2"
       cx="-435.21497"
       cy="674.84698"
       transform="rotate(-90)"
       rx="0.24504612"
       ry="0.23626655" /><ellipse
       style="fill:none;fill-opacity:1;stroke:#000000;stroke-width:0.114228;stroke-dasharray:none;stroke-opacity:1"
       id="path72-73-6-8-2-0-9"
       cx="431.87613"
       cy="672.30811"
       transform="matrix(0,1,1,0,0,0)"
       rx="0.24504612"
       ry="0.23626655" /><ellipse
       style="fill:none;fill-opacity:1;stroke:#000000;stroke-width:0.114228;stroke-dasharray:none;stroke-opacity:1"
       id="path72-73-0-4-7-3-5-9"
       cx="431.60056"
       cy="673.18433"
       transform="matrix(0,1,1,0,0,0)"
       rx="0.24504612"
       ry="0.23626655" /><ellipse
       style="fill:none;fill-opacity:1;stroke:#000000;stroke-width:0.114228;stroke-dasharray:none;stroke-opacity:1"
       id="path72-73-0-9-0-7-7-1-8"
       cx="431.65445"
       cy="674.0545"
       transform="matrix(0,1,1,0,0,0)"
       rx="0.24504612"
       ry="0.23626655" /><ellipse
       style="fill:none;fill-opacity:1;stroke:#000000;stroke-width:0.114228;stroke-dasharray:none;stroke-opacity:1"
       id="path72-73-0-9-5-6-8-31-1-3"
       cx="432.09543"
       cy="674.81958"
       transform="matrix(0,1,1,0,0,0)"
       rx="0.24504612"
       ry="0.23626655" /><path
       style="fill:none;fill-opacity:1;stroke:#000000;stroke-width:2.36203;stroke-dasharray:none;stroke-opacity:1"
       d="m 35.91701,41.02029 c -1.190448,1.147678 -3.050799,3.421441 -4.911151,5.695204 0,0 0.413411,3.100586 0.413411,3.100586 -7.257503,12.724686 -14.514863,25.449121 -15.366535,38.876276 -0.851672,13.427154 4.702301,27.555684 11.596462,36.264744 6.894161,8.70905 15.127846,11.99765 23.361696,15.28632 0,0 0,0.87698 0,0.87698 5.943963,1.65651 11.887929,3.31303 18.014658,3.28865 6.12673,-0.0244 12.435973,-1.72958 18.745344,-3.43482 0,0 -0.292328,-1.31546 -0.292328,-1.31546 8.526178,-3.60536 17.052193,-7.21064 23.044993,-13.65412 5.9928,-6.44348 9.45185,-15.72446 10.60117,-25.1091 1.14933,-9.384648 -0.0112,-18.871823 -2.75534,-27.350744 -2.74413,-8.478922 -7.07161,-15.94872 -11.39918,-23.418666 0,0 -0.10335,-4.754232 -0.10335,-4.754232 0,0 -4.85758,-6.717937 -4.85758,-6.717937 0,0 -13.849286,8.371583 -13.849286,8.371583 0,0 0.414798,6.470113 0.414798,6.470113 2.850179,6.138847 5.700357,12.277693 8.221692,19.183972 2.521335,6.906279 4.713696,14.579535 3.946326,22.241063 -0.767372,7.661528 -4.494381,15.310418 -10.913505,20.438408 -6.419123,5.128 -15.529585,7.73446 -24.591874,7.05236 -9.062289,-0.68211 -18.075319,-4.65272 -23.580901,-11.26672 -5.505582,-6.61401 -7.503064,-15.870637 -6.345918,-24.701495 1.157147,-8.830859 5.46887,-17.235064 8.513951,-22.740565 3.045081,-5.5055 4.823363,-8.112021 6.601681,-10.718595 0,0 -0.292328,-5.554194 -0.292328,-5.554194 0,0 -11.985368,-7.600476 -11.985368,-7.600476 -0.520545,0.02159 -1.041091,0.04319 -2.231538,1.190865 z"
       id="path65-6-4-9-5-5-8"
       transform="matrix(0,-0.04925021,0.04748566,0,689.20356,426.70583)" /><path
       style="fill:none;fill-opacity:1;stroke:#000000;stroke-width:2.36203;stroke-dasharray:none;stroke-opacity:1"
       d="m 51.010893,140.17034 c 0.310598,-1.27893 0.621193,-2.55785 1.32157,-3.78198 0.700378,-1.22413 1.790488,-2.39341 3.474429,-2.83798 1.683941,-0.44458 3.961604,-0.16444 6.263695,0.0548 2.30209,0.21925 4.628471,0.37759 6.942743,0.33495 2.314272,-0.0426 4.616292,-0.28623 6.632141,-0.49329 2.015848,-0.20707 3.745411,-0.37759 5.353218,-0.067 1.607808,0.3106 3.093768,1.1023 4.147367,2.22899 1.053598,1.12669 1.674779,2.58829 2.295972,4.04992"
       id="path69-7-3-2-7-9-6"
       transform="matrix(0,-0.04925021,0.04748566,0,689.20356,426.70583)" /><ellipse
       style="fill:none;fill-opacity:1;stroke:#000000;stroke-width:0.114228;stroke-dasharray:none;stroke-opacity:1"
       id="path72-73-9-5-8-0-9"
       cx="-425.11954"
       cy="692.39728"
       transform="rotate(-90)"
       rx="0.24504612"
       ry="0.23626655" /><ellipse
       style="fill:none;fill-opacity:1;stroke:#000000;stroke-width:0.114228;stroke-dasharray:none;stroke-opacity:1"
       id="path72-73-0-8-5-5-83-8"
       cx="-425.39514"
       cy="693.2735"
       transform="rotate(-90)"
       rx="0.24504612"
       ry="0.23626655" /><ellipse
       style="fill:none;fill-opacity:1;stroke:#000000;stroke-width:0.114228;stroke-dasharray:none;stroke-opacity:1"
       id="path72-73-0-9-8-3-8-8-6"
       cx="-425.34122"
       cy="694.14374"
       transform="rotate(-90)"
       rx="0.24504612"
       ry="0.23626655" /><ellipse
       style="fill:none;fill-opacity:1;stroke:#000000;stroke-width:0.114228;stroke-dasharray:none;stroke-opacity:1"
       id="path72-73-0-9-5-0-3-3-7-6"
       cx="-424.90027"
       cy="694.90869"
       transform="rotate(-90)"
       rx="0.24504612"
       ry="0.23626655" /><ellipse
       style="fill:none;fill-opacity:1;stroke:#000000;stroke-width:0.114228;stroke-dasharray:none;stroke-opacity:1"
       id="path72-73-6-8-3-24-2-2"
       cx="421.56143"
       cy="692.36987"
       transform="matrix(0,1,1,0,0,0)"
       rx="0.24504612"
       ry="0.23626655" /><ellipse
       style="fill:none;fill-opacity:1;stroke:#000000;stroke-width:0.114228;stroke-dasharray:none;stroke-opacity:1"
       id="path72-73-0-4-7-7-1-6-3"
       cx="421.28583"
       cy="693.24615"
       transform="matrix(0,1,1,0,0,0)"
       rx="0.24504612"
       ry="0.23626655" /><ellipse
       style="fill:none;fill-opacity:1;stroke:#000000;stroke-width:0.114228;stroke-dasharray:none;stroke-opacity:1"
       id="path72-73-0-9-0-7-4-1-93-8"
       cx="421.33972"
       cy="694.11627"
       transform="matrix(0,1,1,0,0,0)"
       rx="0.24504612"
       ry="0.23626655" /><ellipse
       style="fill:none;fill-opacity:1;stroke:#000000;stroke-width:0.114228;stroke-dasharray:none;stroke-opacity:1"
       id="path72-73-0-9-5-6-8-3-5-8-2"
       cx="421.7807"
       cy="694.88123"
       transform="matrix(0,1,1,0,0,0)"
       rx="0.24504612"
       ry="0.23626655" /><path
       style="fill:none;fill-opacity:1;stroke:#000000;stroke-width:2.36203;stroke-dasharray:none;stroke-opacity:1"
       d="m 35.91701,41.02029 c -1.190448,1.147678 -3.050799,3.421441 -4.911151,5.695204 0,0 0.413411,3.100586 0.413411,3.100586 -7.257503,12.724686 -14.514863,25.449121 -15.366535,38.876276 -0.851672,13.427154 4.702301,27.555684 11.596462,36.264744 6.894161,8.70905 15.127846,11.99765 23.361696,15.28632 0,0 0,0.87698 0,0.87698 5.943963,1.65651 11.887929,3.31303 18.014658,3.28865 6.12673,-0.0244 12.435973,-1.72958 18.745344,-3.43482 0,0 -0.292328,-1.31546 -0.292328,-1.31546 8.526178,-3.60536 17.052193,-7.21064 23.044993,-13.65412 5.9928,-6.44348 9.45185,-15.72446 10.60117,-25.1091 1.14933,-9.384648 -0.0112,-18.871823 -2.75534,-27.350744 -2.74413,-8.478922 -7.07161,-15.94872 -11.39918,-23.418666 0,0 -0.10335,-4.754232 -0.10335,-4.754232 0,0 -4.85758,-6.717937 -4.85758,-6.717937 0,0 -13.849286,8.371583 -13.849286,8.371583 0,0 0.414798,6.470113 0.414798,6.470113 2.850179,6.138847 5.700357,12.277693 8.221692,19.183972 2.521335,6.906279 4.713696,14.579535 3.946326,22.241063 -0.767372,7.661528 -4.494381,15.310418 -10.913505,20.438408 -6.419123,5.128 -15.529585,7.73446 -24.591874,7.05236 -9.062289,-0.68211 -18.075319,-4.65272 -23.580901,-11.26672 -5.505582,-6.61401 -7.503064,-15.870637 -6.345918,-24.701495 1.157147,-8.830859 5.46887,-17.235064 8.513951,-22.740565 3.045081,-5.5055 4.823363,-8.112021 6.601681,-10.718595 0,0 -0.292328,-5.554194 -0.292328,-5.554194 0,0 -11.985368,-7.600476 -11.985368,-7.600476 -0.520545,0.02159 -1.041091,0.04319 -2.231538,1.190865 z"
       id="path65-6-4-4-1-1-6"
       transform="matrix(0,-0.04925021,0.04748566,0,711.11221,436.85374)" /><path
       style="fill:none;fill-opacity:1;stroke:#000000;stroke-width:2.36203;stroke-dasharray:none;stroke-opacity:1"
       d="m 51.010893,140.17034 c 0.310598,-1.27893 0.621193,-2.55785 1.32157,-3.78198 0.700378,-1.22413 1.790488,-2.39341 3.474429,-2.83798 1.683941,-0.44458 3.961604,-0.16444 6.263695,0.0548 2.30209,0.21925 4.628471,0.37759 6.942743,0.33495 2.314272,-0.0426 4.616292,-0.28623 6.632141,-0.49329 2.015848,-0.20707 3.745411,-0.37759 5.353218,-0.067 1.607808,0.3106 3.093768,1.1023 4.147367,2.22899 1.053598,1.12669 1.674779,2.58829 2.295972,4.04992"
       id="path69-7-3-4-4-0-2"
       transform="matrix(0,-0.04925021,0.04748566,0,711.11221,436.85374)" /><ellipse
       style="fill:none;fill-opacity:1;stroke:#000000;stroke-width:0.114228;stroke-dasharray:none;stroke-opacity:1"
       id="path72-73-9-4-2-3-7"
       cx="-435.26746"
       cy="714.30591"
       transform="rotate(-90)"
       rx="0.24504612"
       ry="0.23626655" /><ellipse
       style="fill:none;fill-opacity:1;stroke:#000000;stroke-width:0.114228;stroke-dasharray:none;stroke-opacity:1"
       id="path72-73-0-8-2-5-3-5"
       cx="-435.54303"
       cy="715.18219"
       transform="rotate(-90)"
       rx="0.24504612"
       ry="0.23626655" /><ellipse
       style="fill:none;fill-opacity:1;stroke:#000000;stroke-width:0.114228;stroke-dasharray:none;stroke-opacity:1"
       id="path72-73-0-9-8-7-3-8-7"
       cx="-435.48914"
       cy="716.05237"
       transform="rotate(-90)"
       rx="0.24504612"
       ry="0.23626655" /><ellipse
       style="fill:none;fill-opacity:1;stroke:#000000;stroke-width:0.114228;stroke-dasharray:none;stroke-opacity:1"
       id="path72-73-0-9-5-0-9-8-4-8"
       cx="-435.04816"
       cy="716.81738"
       transform="rotate(-90)"
       rx="0.24504612"
       ry="0.23626655" /><ellipse
       style="fill:none;fill-opacity:1;stroke:#000000;stroke-width:0.114228;stroke-dasharray:none;stroke-opacity:1"
       id="path72-73-6-8-2-9-8-2"
       cx="431.70935"
       cy="714.2785"
       transform="matrix(0,1,1,0,0,0)"
       rx="0.24504612"
       ry="0.23626655" /><ellipse
       style="fill:none;fill-opacity:1;stroke:#000000;stroke-width:0.114228;stroke-dasharray:none;stroke-opacity:1"
       id="path72-73-0-4-7-3-2-0-7"
       cx="431.43375"
       cy="715.15479"
       transform="matrix(0,1,1,0,0,0)"
       rx="0.24504612"
       ry="0.23626655" /><ellipse
       style="fill:none;fill-opacity:1;stroke:#000000;stroke-width:0.114228;stroke-dasharray:none;stroke-opacity:1"
       id="path72-73-0-9-0-7-7-8-1-8"
       cx="431.48764"
       cy="716.02496"
       transform="matrix(0,1,1,0,0,0)"
       rx="0.24504612"
       ry="0.23626655" /><ellipse
       style="fill:none;fill-opacity:1;stroke:#000000;stroke-width:0.114228;stroke-dasharray:none;stroke-opacity:1"
       id="path72-73-0-9-5-6-8-31-7-5-0"
       cx="431.92862"
       cy="716.78998"
       transform="matrix(0,1,1,0,0,0)"
       rx="0.24504612"
       ry="0.23626655" /><path
       style="fill:none;fill-opacity:1;stroke:#000000;stroke-width:2.36203;stroke-dasharray:none;stroke-opacity:1"
       d="m 35.91701,41.02029 c -1.190448,1.147678 -3.050799,3.421441 -4.911151,5.695204 0,0 0.413411,3.100586 0.413411,3.100586 -7.257503,12.724686 -14.514863,25.449121 -15.366535,38.876276 -0.851672,13.427154 4.702301,27.555684 11.596462,36.264744 6.894161,8.70905 15.127846,11.99765 23.361696,15.28632 0,0 0,0.87698 0,0.87698 5.943963,1.65651 11.887929,3.31303 18.014658,3.28865 6.12673,-0.0244 12.435973,-1.72958 18.745344,-3.43482 0,0 -0.292328,-1.31546 -0.292328,-1.31546 8.526178,-3.60536 17.052193,-7.21064 23.044993,-13.65412 5.9928,-6.44348 9.45185,-15.72446 10.60117,-25.1091 1.14933,-9.384648 -0.0112,-18.871823 -2.75534,-27.350744 -2.74413,-8.478922 -7.07161,-15.94872 -11.39918,-23.418666 0,0 -0.10335,-4.754232 -0.10335,-4.754232 0,0 -4.85758,-6.717937 -4.85758,-6.717937 0,0 -13.849286,8.371583 -13.849286,8.371583 0,0 0.414798,6.470113 0.414798,6.470113 2.850179,6.138847 5.700357,12.277693 8.221692,19.183972 2.521335,6.906279 4.713696,14.579535 3.946326,22.241063 -0.767372,7.661528 -4.494381,15.310418 -10.913505,20.438408 -6.419123,5.128 -15.529585,7.73446 -24.591874,7.05236 -9.062289,-0.68211 -18.075319,-4.65272 -23.580901,-11.26672 -5.505582,-6.61401 -7.503064,-15.870637 -6.345918,-24.701495 1.157147,-8.830859 5.46887,-17.235064 8.513951,-22.740565 3.045081,-5.5055 4.823363,-8.112021 6.601681,-10.718595 0,0 -0.292328,-5.554194 -0.292328,-5.554194 0,0 -11.985368,-7.600476 -11.985368,-7.600476 -0.520545,0.02159 -1.041091,0.04319 -2.231538,1.190865 z"
       id="path65-6-4-9-5-0-4-2"
       transform="matrix(0,-0.04925021,0.04748566,0,731.17393,426.53904)" /><path
       style="fill:none;fill-opacity:1;stroke:#000000;stroke-width:2.36203;stroke-dasharray:none;stroke-opacity:1"
       d="m 51.010893,140.17034 c 0.310598,-1.27893 0.621193,-2.55785 1.32157,-3.78198 0.700378,-1.22413 1.790488,-2.39341 3.474429,-2.83798 1.683941,-0.44458 3.961604,-0.16444 6.263695,0.0548 2.30209,0.21925 4.628471,0.37759 6.942743,0.33495 2.314272,-0.0426 4.616292,-0.28623 6.632141,-0.49329 2.015848,-0.20707 3.745411,-0.37759 5.353218,-0.067 1.607808,0.3106 3.093768,1.1023 4.147367,2.22899 1.053598,1.12669 1.674779,2.58829 2.295972,4.04992"
       id="path69-7-3-2-7-1-1-0"
       transform="matrix(0,-0.04925021,0.04748566,0,731.17393,426.53904)" /><ellipse
       style="fill:none;fill-opacity:1;stroke:#000000;stroke-width:0.114228;stroke-dasharray:none;stroke-opacity:1"
       id="path72-73-9-5-8-4-3-8"
       cx="-424.95273"
       cy="734.36768"
       transform="rotate(-90)"
       rx="0.24504612"
       ry="0.23626655" /><ellipse
       style="fill:none;fill-opacity:1;stroke:#000000;stroke-width:0.114228;stroke-dasharray:none;stroke-opacity:1"
       id="path72-73-0-8-5-5-8-7-9"
       cx="-425.22833"
       cy="735.24384"
       transform="rotate(-90)"
       rx="0.24504612"
       ry="0.23626655" /><ellipse
       style="fill:none;fill-opacity:1;stroke:#000000;stroke-width:0.114228;stroke-dasharray:none;stroke-opacity:1"
       id="path72-73-0-9-8-3-8-1-3-2"
       cx="-425.17441"
       cy="736.11407"
       transform="rotate(-90)"
       rx="0.24504612"
       ry="0.23626655" /><ellipse
       style="fill:none;fill-opacity:1;stroke:#000000;stroke-width:0.114228;stroke-dasharray:none;stroke-opacity:1"
       id="path72-73-0-9-5-0-3-3-9-5-8"
       cx="-424.73346"
       cy="736.87903"
       transform="rotate(-90)"
       rx="0.24504612"
       ry="0.23626655" /><ellipse
       style="fill:none;fill-opacity:1;stroke:#000000;stroke-width:0.114228;stroke-dasharray:none;stroke-opacity:1"
       id="path72-73-6-8-3-24-3-8-2"
       cx="421.39465"
       cy="734.34027"
       transform="matrix(0,1,1,0,0,0)"
       rx="0.24504612"
       ry="0.23626655" /><ellipse
       style="fill:none;fill-opacity:1;stroke:#000000;stroke-width:0.114228;stroke-dasharray:none;stroke-opacity:1"
       id="path72-73-0-4-7-7-1-5-5-0"
       cx="421.11902"
       cy="735.21649"
       transform="matrix(0,1,1,0,0,0)"
       rx="0.24504612"
       ry="0.23626655" /><ellipse
       style="fill:none;fill-opacity:1;stroke:#000000;stroke-width:0.114228;stroke-dasharray:none;stroke-opacity:1"
       id="path72-73-0-9-0-7-4-1-9-6-5"
       cx="421.17294"
       cy="736.08661"
       transform="matrix(0,1,1,0,0,0)"
       rx="0.24504612"
       ry="0.23626655" /><ellipse
       style="fill:none;fill-opacity:1;stroke:#000000;stroke-width:0.114228;stroke-dasharray:none;stroke-opacity:1"
       id="path72-73-0-9-5-6-8-3-5-7-9-5"
       cx="421.61389"
       cy="736.85162"
       transform="matrix(0,1,1,0,0,0)"
       rx="0.24504612"
       ry="0.23626655" /></g></svg>
