<?xml version="1.0" encoding="UTF-8" standalone="no"?>
<!-- Created with Inkscape (http://www.inkscape.org/) -->

<svg
   width="152.22852"
   height="117.64128"
   viewBox="0 0 40.277126 31.125922"
   version="1.1"
   id="svg1"
   xml:space="preserve"
   xmlns="http://www.w3.org/2000/svg"
   xmlns:svg="http://www.w3.org/2000/svg"><defs
     id="defs1"><linearGradient
       id="swatch233"><stop
         style="stop-color:#000000;stop-opacity:1;"
         offset="0"
         id="stop233" /></linearGradient><linearGradient
       id="swatch2"><stop
         style="stop-color:#000000;stop-opacity:1;"
         offset="0"
         id="stop2" /></linearGradient></defs><g
     id="layer1"
     transform="translate(-287.54414,-14.695744)"><path
       style="fill:#a05a2c;fill-opacity:1;stroke:#000000;stroke-width:0.192288;stroke-dasharray:none;stroke-opacity:1"
       d="m 325.81827,40.327314 -3.893,5.39761 -14.46358,-0.17584 -1.31048,-2.21459 -1.54109,-3.43955 -1.16141,-2.74717 -1.85378,0.64771 -2.07714,1.11673 -2.6355,1.25075 -0.93805,0.5807 -0.98273,0.9604 -0.27919,0.98272 -0.22334,0.67005 -0.98273,0.53603 -1.17257,0.16751 -1.80912,-0.49136 -0.97156,-0.18985 -1.35125,-1.82028 -0.0893,-0.68121 -0.42436,-0.92689 0.13401,-1.17257 -0.14518,-0.85989 0.75939,-0.80406 1.25074,-2.82534 3.36984,-6.14377 1.51613,0.079 1.26345,-0.6791 2.54267,-2.92171 1.27924,-2.00572 0.42642,-1.78461 -1.20028,-2.11627 -0.20531,-1.21606 v -1.42138 l -0.079,-1.23185 1.18448,0.52117 0.88441,1.13709 0.26848,1.07393 0.78965,0.56855 0.52117,0.64751 0.44221,-0.0632 6.00135,2.43213 5.92239,3.33233 5.4644,3.39551 5.90659,4.34308 1.61919,1.31565 z"
       id="path276-46" /><path
       style="fill:#f9f9f9;fill-opacity:1;stroke:#000000;stroke-width:0.192288;stroke-dasharray:none;stroke-opacity:1"
       d="m 294.44781,28.258544 -1.45175,3.37255 -1.40709,3.99791 -0.0893,0.67005 c 0,0 -0.77856,1.22717 -0.81014,2.68013 -0.0316,1.45296 0.0954,3.03757 0.0954,3.03757 0,0 0.56954,1.58576 0.65888,1.6081 0.0893,0.0223 -1.85378,-0.24569 -1.85378,-0.24569 l -1.49643,-1.90962 -0.0223,-0.70354 -0.42436,-0.80405 0.24568,-1.20608 -0.21218,-0.79288 0.85989,-0.98273 0.63654,-1.77561 3.90857,-7.05778 z"
       id="path277-06" /><path
       style="fill:#bdc0be;fill-opacity:1;stroke:#000000;stroke-width:0.192288;stroke-dasharray:none;stroke-opacity:1"
       d="m 291.52196,36.299054 0.40203,0.067 1.42942,-0.62538 h 0.55837 l 0.37969,0.64771 0.29035,0.80405 -0.067,0.80406 1.29542,0.29034 -0.55837,1.09441 0.17868,0.82639 -0.46903,0.58069 -0.0893,0.46903 0.11167,0.55837 -0.5137,1.5411 -0.82638,0.49137 -1.45176,0.201 -0.91572,-0.35735 0.17867,-0.0447 -0.78127,-1.83315 v -2.88223 c 0,0 -0.18161,-0.41062 0.28428,-1.53192 0.46589,-1.12131 0.564,-1.10082 0.564,-1.10082 z"
       id="path278-6" /><path
       style="fill:#a05a2c;fill-opacity:1;stroke:#000000;stroke-width:0.192288;stroke-dasharray:none;stroke-opacity:1"
       d="m 294.2468,21.669804 -1.20608,-2.61317 -0.40203,-2.13296 0.58071,0.0112 1.56343,1.45176 1.92079,0.89338 z"
       id="path279-1" /><path
       style="fill:#ffeeaa;fill-opacity:1;stroke:#000000;stroke-width:0.192288;stroke-dasharray:none;stroke-opacity:1"
       d="m 298.57021,17.753334 -3.47447,3.12702 -1.95834,2.02151 -1.46875,2.02151 -0.34745,1.20027 0.0316,1.02655 -0.56855,1.1213 -0.12634,0.55276 0.18951,0.88441 0.17373,1.20027 0.2211,-0.0474 0.96337,-1.23186 0.90021,-1.53192 1.43717,0.079 1.37399,-0.72648 2.14785,-2.41634 1.57931,-2.62164 0.53696,-1.64248 -1.3582,-2.08468 z"
       id="path280-8" /><path
       style="fill:#ffeeaa;fill-opacity:1;stroke:#000000;stroke-width:0.192288;stroke-dasharray:none;stroke-opacity:1"
       d="m 301.87095,37.620984 -1.40558,2.45582 -2.68481,2.46371 2.49529,-1.46086 1.84779,-1.86358 -1.45296,2.08469 -1.48454,1.44506 2.04519,-1.1292 1.3661,-1.55561 -0.63962,1.71354 -0.63962,0.84493 -0.77385,0.6712 2.02151,-0.82124 1.61089,-1.46875 -0.22901,1.19238 -1.91095,1.89516 2.97698,-1.19237 0.57645,-0.75808 -2.13996,-5.07746 z"
       id="path281-4" /><path
       style="fill:#ffeeaa;fill-opacity:1;stroke:#000000;stroke-width:0.192288;stroke-dasharray:none;stroke-opacity:1"
       d="m 301.17057,17.683054 0.75937,0.15634 2.69134,1.0609 1.90962,0.14518 1.76444,1.08323 1.40709,0.0782 1.36242,1.11674 1.21725,0.29035 1.27307,1.11674 2.04364,0.6142 1.2284,1.42942 2.12181,0.90456 0.96039,1.00506 1.74211,0.81522 1.03475,1.21098 1.62799,0.39359 0.57199,1.40137 1.94462,0.57689 0.62102,1.25144 0.24802,0.73854 -0.11044,0.42654 -0.8091,-0.50267 -3.01821,-2.49266 -6.33189,-4.28827 -6.59992,-3.95324 -4.74614,-2.25581 -3.46188,-1.27308 -0.33502,0.0893 z"
       id="path282-9" /><path
       style="fill:#000000;fill-opacity:1;fill-rule:nonzero;stroke:none;stroke-width:1.12023;stroke-dasharray:none;stroke-opacity:1"
       d="m 97.848858,49.965374 c 0.07078,-0.03361 0.345893,-0.194888 0.01643,-1.200245 -0.223144,-0.680919 -0.744137,-1.918161 -1.746346,-4.149178 -0.579579,-1.290199 -1.246674,-2.749936 -1.98557,-4.365155 -0.604945,-1.322403 -1.254437,-2.741218 -1.740598,-3.820717 -0.856838,-1.903003 -1.444859,-4.011326 -1.83683,-5.877617 -0.340566,-1.621536 -0.481626,-2.862446 -0.499698,-2.8413 a 0.03148217,1.0483167 40.577972 0 0 -0.730124,0.802449 c 0,-0.01911 0.0092,-0.950013 -0.08898,-2.078592 a 0.28469366,0.63898142 18.449981 0 0 0.667843,-0.729717 c -0.06101,-0.564365 -0.150123,-1.18379 -0.283546,-1.760834 -0.06706,-0.290032 -0.146309,-0.573756 -0.24069,-0.837367 -0.09447,-0.263865 -0.207522,-0.517263 -0.345015,-0.740094 -0.207618,-0.331017 -0.316768,-0.558715 -0.374541,-0.710121 -0.02916,-0.07643 -0.04333,-0.128382 -0.05135,-0.161208 -0.0081,-0.03296 -0.0091,-0.04297 -0.01375,-0.0361 -0.0047,0.0069 -0.01412,0.03145 -0.03266,0.05851 -0.0201,0.02933 -0.04562,0.05573 -0.07579,0.07774 -0.02988,0.0218 -0.06018,0.0363 -0.08774,0.0464 -0.02805,0.01028 -0.05696,0.01733 -0.08558,0.02251 a 0.52899998,0.52899998 39.166116 0 0 -0.0813,0.0083 c -0.0095,2.31e-4 0.601803,-0.0093 1.428574,0.06356 0.38544,0.03396 0.808468,0.08651 1.198824,0.167568 0.190736,0.03961 0.370079,0.0853 0.530621,0.137462 0.159777,0.05192 0.293095,0.107743 0.396467,0.165246 0.01459,0.0091 0.0333,0.02036 0.06757,0.04369 0.03205,0.02183 0.07011,0.04911 0.115064,0.08305 0.09003,0.06798 0.198138,0.155417 0.324678,0.26322 0.252013,0.214697 0.55906,0.494715 0.907862,0.825513 0.694208,0.658374 1.528296,1.493608 2.365571,2.350447 0.837132,0.856692 1.669616,1.726947 2.353578,2.447026 0.344611,0.362808 0.651676,0.687656 0.904328,0.955234 0.127718,0.135263 0.210721,0.223251 0.338439,0.358514 0.09645,0.102138 0.183129,0.193824 0.247581,0.261589 0.09445,0.09781 0.203082,0.191907 0.315761,0.280673 0.114691,0.09035 0.242026,0.181785 0.377302,0.273063 0.27291,0.184139 0.59261,0.377348 0.93276,0.570616 0.69768,0.396406 1.51473,0.811861 2.26351,1.176722 1.55252,0.756502 2.80401,1.300826 2.93889,1.354761 2.00293,1.011587 3.6002,1.748074 4.45731,1.982637 0.67252,0.184047 1.1117,0.07385 1.33404,0.08862 -0.14199,-0.171733 -0.3094,-0.592444 -0.85194,-1.030397 -0.69561,-0.561503 -2.24129,-1.433643 -4.25057,-2.475199 a 0.05531988,0.0022196 27.491161 0 0 -0.0481,-0.02262 c 0.007,-0.0023 -1.28969,-0.549285 -2.90441,-1.308264 -0.74187,-0.348708 -1.53387,-0.735832 -2.20116,-1.096277 -0.32566,-0.175908 -0.615,-0.341911 -0.85129,-0.491169 -0.11668,-0.0737 -0.21613,-0.140625 -0.29857,-0.200458 -0.0841,-0.06104 -0.13929,-0.106558 -0.17637,-0.13986 -0.0634,-0.05997 -0.14662,-0.140945 -0.24659,-0.2396 -0.0995,-0.0982 -0.215409,-0.213725 -0.34557,-0.344145 -0.259337,-0.259853 -0.57286,-0.576415 -0.926475,-0.933258 -0.69957,-0.705954 -1.553825,-1.567319 -2.411998,-2.414106 -0.857341,-0.845966 -1.720138,-1.679019 -2.448805,-2.339909 -0.364981,-0.331033 -0.699019,-0.621325 -0.98393,-0.849502 -0.143044,-0.11456 -0.277024,-0.216138 -0.398978,-0.30068 -0.06131,-0.0425 -0.12137,-0.08194 -0.179529,-0.117236 -0.05772,-0.03503 -0.117496,-0.06837 -0.177752,-0.0971 -0.190409,-0.08957 -0.397868,-0.159656 -0.60585,-0.215706 -0.21149,-0.057 -0.43361,-0.10215 -0.654676,-0.138278 -0.450537,-0.07363 -0.920389,-0.113571 -1.330348,-0.135363 -0.888616,-0.04723 -1.522121,-0.01799 -1.531616,-0.01776 a 0.52899998,0.52899998 39.172769 0 0 -0.0813,0.0083 c -0.02836,0.0051 -0.07447,0.01524 -0.129722,0.03669 -0.05377,0.02087 -0.120844,0.05428 -0.189689,0.108173 -0.06788,0.05314 -0.134578,0.12399 -0.189844,0.215967 -0.05385,0.08962 -0.09189,0.191044 -0.113128,0.302065 -0.0206,0.107693 -0.02496,0.221881 -0.01492,0.341636 0.0099,0.117559 0.03384,0.243677 0.07247,0.379573 0.07527,0.264833 0.211064,0.584017 0.430866,0.97604 0.07319,0.134008 0.144291,0.30743 0.210447,0.520481 0.0653,0.210281 0.12229,0.447829 0.171305,0.704974 0.09785,0.513328 0.159193,1.079691 0.195606,1.614548 l 0.667844,-0.729714 c 0.09817,1.084506 0.08898,1.97187 0.08898,1.952759 l -0.730124,0.802449 c -0.01807,0.02115 0.09477,1.31656 0.427392,3.014016 0.37947,1.936515 0.990482,4.183241 1.920332,6.22337 0.502769,1.102869 1.150461,2.487091 1.782761,3.819663 0.746573,1.573403 1.477856,3.088395 2.086722,4.324297 1.076959,2.186058 1.716109,3.392103 2.095912,3.98737 0.569436,0.89248 0.869349,0.78079 0.939745,0.747364 z"
       id="path2-1"
       transform="matrix(0.17164961,0,0,0.17164961,277.51808,13.204934)" /><path
       style="fill:#000000;fill-opacity:1;fill-rule:nonzero;stroke:none;stroke-width:1.12023;stroke-dasharray:none;stroke-opacity:1"
       d="m 135.98699,49.592007 c 0.0698,-0.05723 0.24085,-0.316613 -0.60182,-1.598695 -0.58603,-0.891623 -1.89907,-2.631688 -3.84952,-5.4232 -1.13862,-1.629611 -2.54146,-3.705015 -3.72794,-5.730895 -0.53797,-0.918582 -1.03942,-1.840344 -1.45347,-2.713197 -0.3959,-0.834576 -0.707,-1.614287 -0.8947,-2.295637 -0.39656,-1.442259 -0.71903,-2.432027 -0.9924,-3.277778 -0.12918,-0.399637 -0.24145,-0.74951 -0.33799,-1.081599 -0.095,-0.326916 -0.17501,-0.637281 -0.24132,-0.963423 -0.0659,-0.324243 -0.1193,-0.668767 -0.16039,-1.067017 -0.0411,-0.398782 -0.0699,-0.851032 -0.0867,-1.390391 -0.0341,-1.092831 -0.0183,-2.524589 0.0379,-4.525073 0.12056,-4.283303 -0.12599,-6.751946 -0.33754,-8.105839 -0.0791,-0.506213 -0.16556,-0.913003 -0.245,-1.230701 0.54297,0.05613 1.3591,0.193724 2.33231,0.54513 0.92784,0.335021 1.9776,0.856646 3.06597,1.665663 1.13514,0.843784 2.28009,1.9762 3.36592,3.482544 0.5427,0.753212 1.06687,1.770859 1.56369,2.963488 0.51918,1.246312 1.00062,2.664289 1.44015,4.137929 0.96987,3.251779 1.76479,6.874233 2.34682,9.787846 0.64362,3.221951 1.17169,6.640608 1.81531,9.862559 0.45522,2.289913 0.75751,2.398375 0.85077,2.387162 0.0744,-0.0089 0.3921,-0.193491 0.19695,-2.534327 -0.11485,-1.377622 -0.55002,-5.041607 -1.4784,-9.983699 -0.55327,-2.94521 -1.33824,-6.610954 -2.3273,-9.937662 -0.44748,-1.505084 -0.94697,-2.975285 -1.49609,-4.283608 -0.52137,-1.242218 -1.10134,-2.372049 -1.74306,-3.248987 -1.18103,-1.61339 -2.44474,-2.838922 -3.71721,-3.75298 -1.21972,-0.876169 -2.40357,-1.4345868 -3.4565,-1.7831772 -2.07693,-0.6876032 -3.52878,-0.5272349 -3.58427,-0.4982391 a 0.69192188,0.82851562 67.276303 0 0 -0.444,0.8561951 c -0.0286,-0.1011842 0.26345,0.4150982 0.46862,1.7281962 0.19949,1.276679 0.40719,3.673911 0.23752,7.903456 -0.0802,2.000498 -0.12403,3.455699 -0.11736,4.586535 0.003,0.559251 0.019,1.040972 0.0491,1.475858 0.0302,0.436049 0.0747,0.822892 0.13504,1.193274 0.0607,0.372504 0.1365,0.722879 0.22662,1.081228 0.0907,0.36059 0.19691,0.733257 0.31541,1.13772 0.25463,0.869065 0.54437,1.817227 0.92251,3.246124 0.21109,0.796338 0.55491,1.663561 0.96809,2.54302 0.43482,0.925491 0.9575,1.887818 1.51126,2.830614 1.22445,2.08471 2.66079,4.176255 3.84255,5.80741 2.02225,2.791273 3.43227,4.475879 4.16782,5.260519 1.05872,1.129382 1.37216,0.993273 1.43265,0.943654 z"
       id="path8-2"
       transform="matrix(0.17164961,0,0,0.17164961,277.51808,13.204934)" /><path
       style="fill:none;fill-opacity:1;stroke:#000000;stroke-width:0.192288;stroke-dasharray:none;stroke-opacity:1"
       d="m 295.3705,20.278964 c 0,0 -0.29584,-0.75619 -0.86063,-1.14732 -0.5648,-0.39114 -1.77014,-2.21955 -1.77014,-2.21955"
       id="path9-5" /><path
       style="fill:#000000;fill-opacity:1;fill-rule:nonzero;stroke:none;stroke-width:1.12023;stroke-dasharray:none;stroke-opacity:1"
       d="m 150.41659,53.868917 c 0.0745,0.04193 0.39718,0.152465 0.71682,-0.275548 0.25386,-0.339911 0.59921,-1.115115 0.87322,-2.490285 0.40128,-2.013869 0.49135,-4.75112 -0.29494,-8.027308 -0.20127,-0.838659 -0.5649,-1.761915 -1.07396,-2.760294 -0.48367,-0.948576 -1.08956,-1.947021 -1.78431,-2.971158 -1.39687,-2.059156 -3.09654,-4.138447 -4.66975,-5.915906 -2.3153,-2.615901 -4.15794,-4.398048 -5.12479,-5.204514 -1.15209,-0.960978 -1.59421,-0.915569 -1.6541,-0.850863 -0.0694,0.07501 -0.11852,0.42534 0.91495,1.60785 0.8202,0.938476 2.6218,2.723777 4.92762,5.28353 1.57108,1.744103 3.27016,3.749162 4.66623,5.729671 0.69309,0.983242 1.29051,1.930795 1.76141,2.821131 0.49698,0.939646 0.83266,1.777229 1.00792,2.507458 0.74712,3.112996 0.50252,5.694858 0.0954,7.521812 -0.28052,1.258868 -0.56147,1.953969 -0.61637,2.329811 -0.0673,0.460794 0.16843,0.646117 0.25464,0.694613 z"
       id="path10-0"
       transform="matrix(0.17164961,0,0,0.17164961,277.51808,13.204934)" /><path
       style="fill:#000000;fill-opacity:1;fill-rule:nonzero;stroke:none;stroke-width:1.12023;stroke-dasharray:none;stroke-opacity:1"
       d="m 292.02705,118.35331 c -0.28431,-0.28823 -0.73124,-0.93547 -1.70584,-1.72941 -1.34866,-1.09865 -4.25218,-3.03016 -7.84615,-5.33151 l 0.053,0.0375 c -9.4e-4,0.0137 -3.09725,-2.2945 -13.28727,-10.49249 -2.47622,-1.992142 -3.67971,-2.980534 -6.15593,-4.972668 -1.80288,-1.44632 -3.39851,-2.696446 -5.15184,-3.994815 -1.82052,-1.348125 -3.76913,-2.716652 -6.15036,-4.313021 -2.53548,-1.699781 -5.52958,-3.635978 -9.15174,-5.932959 -3.64164,-2.309336 -8.04593,-5.064566 -12.89181,-8.073966 -4.53022,-2.813366 -9.22027,-5.70849 -13.64061,-8.429958 -8.32216,-5.123707 -15.20531,-9.332458 -15.19222,-9.355216 l -0.0349,-0.01969 c 0.01,-0.02432 -7.87544,-4.18015 -16.56368,-8.514798 -4.53964,-2.264873 -9.21248,-4.537797 -13.31161,-6.422231 -2.12017,-0.974675 -4.06509,-1.83543 -5.75943,-2.539819 -0.86729,-0.360559 -1.66772,-0.679652 -2.39266,-0.952314 -0.73818,-0.277642 -1.40025,-0.507965 -1.97722,-0.685399 -9.69261,-2.9813 -13.60962,-4.721911 -14.73627,-4.976182 -0.76437,-0.172506 -0.9105,0.104954 -0.94277,0.180256 -0.0306,0.0714 -0.1339,0.38005 0.54113,0.798546 0.99239,0.615246 4.91035,2.465499 14.69433,5.446422 0.53917,0.164237 1.17134,0.381678 1.89149,0.650057 0.70604,0.263119 1.49109,0.573118 2.3478,0.926024 1.67432,0.689704 3.6042,1.535804 5.71778,2.498305 4.08809,1.861677 8.75057,4.107403 13.29578,6.349546 8.69149,4.287505 16.59527,8.392891 16.60501,8.368571 a 0.02069146,0.01943459 72.655651 0 0 -0.0349,-0.01969 c 0.0131,-0.02275 6.92169,4.141366 15.26224,9.230289 4.41402,2.693181 9.14377,5.592734 13.66258,8.384394 4.84248,2.991613 9.26469,5.749287 12.89328,8.050341 3.61782,2.294228 6.59928,4.231355 9.11568,5.934232 2.36251,1.598726 4.28607,2.970792 6.07692,4.322581 1.72504,1.30211 3.29314,2.559279 5.07428,4.019744 2.44325,2.003366 3.66478,3.02801 6.10803,5.031376 10.1277,8.2862 13.16261,10.68953 13.16167,10.70323 a 0.0663141,0.00269047 32.94446 0 0 0.053,0.0374 c 3.57928,2.32413 6.53677,4.17193 8.09403,4.94708 1.12535,0.56016 1.89933,0.7002 2.2792,0.84024 z"
       id="path11-9"
       transform="matrix(0.17164961,0,0,0.17164961,277.51808,13.204934)" /><path
       style="fill:#000000;fill-opacity:1;fill-rule:nonzero;stroke:none;stroke-width:1.12023;stroke-dasharray:none;stroke-opacity:1"
       d="m 195.79182,80.230482 c 0.0743,-0.02065 0.37473,-0.275745 0.0209,-1.627296 -0.25037,-0.956457 -1.0728,-3.278801 -2.78081,-6.400535 -2.53059,-4.625183 -6.52034,-10.082434 -12.37996,-14.477151 -2.82046,-2.115344 -5.1588,-4.111229 -7.46413,-6.158554 -2.25819,-2.005457 -4.12574,-3.73184 -6.19937,-5.44013 -2.42412,-1.997027 -4.65312,-3.558635 -6.99303,-4.894639 -0.5782,-0.330132 -1.13879,-0.632044 -1.6749,-0.905533 -3.20747,-1.636253 -6.42571,-2.655333 -8.16441,-3.247648 1.78399,0.828437 4.52218,2.297195 7.65204,4.173303 0.50797,0.304493 1.03841,0.627659 1.59157,0.974892 2.26579,1.422307 4.36314,2.902619 6.7937,4.872524 2.08259,1.687873 3.91612,3.323708 6.24177,5.327616 2.36181,2.035056 4.71787,3.996497 7.58196,6.144565 5.70613,4.279601 9.48648,9.708394 11.91,14.229169 1.44084,2.687708 2.6612,5.668869 2.88979,6.159583 0.56921,1.221896 0.86906,1.299222 0.97486,1.269834 z"
       id="path12-4"
       transform="matrix(0.17164961,0,0,0.17164961,277.51808,13.204934)" /><path
       style="fill:#000000;fill-opacity:1;fill-rule:nonzero;stroke:none;stroke-width:1.12023;stroke-dasharray:none;stroke-opacity:1"
       d="m 175.59706,189.13943 c 0.0778,-0.0614 0.23041,-0.34768 -0.3699,-1.36423 -0.48463,-0.82067 -1.62522,-2.39119 -3.37399,-5.04736 -2.54609,-3.86722 -5.66982,-9.04071 -8.19379,-14.80757 -2.54986,-5.82599 -4.18019,-10.53178 -5.86751,-15.08342 -1.19404,-3.22099 -2.16086,-5.62684 -3.1283,-7.58232 -1.11187,-2.24744 -2.30712,-3.93185 -2.87592,-4.82033 0.36538,0.89642 1.0538,2.99417 1.90607,5.24313 0.77531,2.04586 2.14694,5.55571 2.92225,7.60157 1.74694,4.5831 3.48756,9.15561 6.07417,15.06557 2.55927,5.84749 5.56477,11.12119 8.11048,15.06914 1.74236,2.70209 2.92466,4.27748 3.57629,4.99122 0.80967,0.88684 1.15138,0.78888 1.22015,0.7346 z"
       id="path13-7"
       transform="matrix(0.17164961,0,0,0.17164961,277.51808,13.204934)" /><path
       style="fill:#000000;fill-opacity:1;fill-rule:nonzero;stroke:none;stroke-width:1.12023;stroke-dasharray:none;stroke-opacity:1"
       d="m 156.9225,59.333881 c -0.0759,0.05196 -0.2417,0.306211 0.93569,2.359255 1.79462,3.129332 3.51347,5.856474 5.30809,8.985806 1.5715,2.744651 3.54979,6.3306 5.29638,9.990196 0.78689,1.648758 1.5435,3.347183 2.19941,5.012299 0.62231,1.579824 1.15632,3.135988 1.53749,4.589014 0.72245,2.754064 1.05479,5.830426 1.09794,9.036136 0.0408,3.030233 -0.17848,6.053733 -0.51139,8.808823 -0.63681,5.27024 -1.68045,9.30208 -1.67083,9.2751 l 0.0536,-0.1505 c 0.0136,-0.0239 -1.39508,3.0368 -3.57374,6.49985 -1.15773,1.84025 -2.49422,3.74598 -3.96152,5.48355 -1.42195,1.68385 -2.9006,3.13143 -4.40583,4.23044 -0.15691,0.11458 -0.31521,0.22615 -0.47479,0.3344 -3.40564,2.31023 -6.51296,3.81805 -9.8544,5.16983 -3.01325,1.219 -6.05698,2.23846 -9.28058,3.71334 -1.57666,0.72135 -2.84027,1.33631 -3.97687,1.91131 -1.14154,0.5775 -2.17302,1.12411 -3.22136,1.67543 -1.10153,0.5793 -2.21562,1.16067 -3.57659,1.83853 -1.43329,0.71388 -3.06746,1.49812 -5.07714,2.42164 -4.95107,2.27509 -8.16396,3.78777 -11.3744,5.78766 -2.11594,1.31809 -3.76224,2.57737 -5.05989,3.71195 -0.35474,0.31017 -0.67675,0.6054 -0.9649,0.88033 -1.92962,1.84114 -3.07048,3.55564 -3.57356,4.22167 0.54145,-0.49645 2.29405,-1.90547 4.26267,-3.41886 0.30794,-0.23674 0.64638,-0.49382 1.01465,-0.76632 1.35631,-1.0036 2.98851,-2.12196 5.09745,-3.33068 3.26269,-1.86999 6.27283,-3.20761 11.33122,-5.46757 2.0329,-0.90828 3.69633,-1.68661 5.15341,-2.39679 1.38326,-0.6742 2.52096,-1.25768 3.6287,-1.83324 1.05767,-0.54953 2.07823,-1.08678 3.20323,-1.65478 1.11729,-0.56411 2.35884,-1.16951 3.91154,-1.88246 3.11128,-1.42859 6.12329,-2.44989 9.1962,-3.70338 3.42421,-1.3968 6.64605,-2.96839 10.1838,-5.36975 0.17759,-0.12055 0.353,-0.24426 0.52615,-0.3707 1.65389,-1.20778 3.23765,-2.76451 4.72619,-4.52242 1.53835,-1.81676 2.92777,-3.79282 4.12206,-5.68222 2.25185,-3.56247 3.69924,-6.68324 3.71288,-6.70714 a 0.00499485,29.275356 19.627291 0 0 0.0536,-0.1505 c 0.01,-0.027 1.07173,-4.13157 1.71224,-9.52697 0.33439,-2.81684 0.55212,-5.92659 0.49702,-9.058038 -0.0582,-3.30936 -0.41923,-6.53821 -1.21166,-9.465045 -0.41652,-1.538378 -0.98878,-3.157731 -1.64227,-4.774405 -0.68982,-1.70657 -1.48036,-3.435255 -2.29779,-5.101331 -1.81883,-3.707113 -3.85888,-7.283904 -5.50344,-10.02361 -2.78129,-4.633425 -4.90223,-7.688324 -5.72801,-8.800306 -1.4197,-1.911754 -1.76134,-1.820225 -1.82073,-1.779544 z"
       id="path14-8"
       transform="matrix(0.17164961,0,0,0.17164961,277.51808,13.204934)" /><path
       style="fill:#000000;fill-opacity:1;fill-rule:nonzero;stroke:none;stroke-width:1.12023;stroke-dasharray:none;stroke-opacity:1"
       d="m 89.247212,89.063197 c -0.06589,-0.03522 -0.354004,-0.167552 -1.69255,2.040759 -0.897954,1.48143 -2.423199,4.193919 -5.287463,9.383224 -2.180301,3.95015 -3.286548,5.96759 -5.466849,9.91773 -1.636426,2.96204 -3.373673,6.09144 -4.692024,8.40834 -2.323302,4.08339 -4.370411,8.06082 -6.01256,11.60839 -0.722643,1.56115 -1.341698,2.98551 -1.839973,4.21735 -0.469918,1.16173 -0.829901,2.14626 -1.056606,2.88252 -0.174172,0.56643 -0.475658,1.16989 -0.873284,1.7903 -0.381894,0.59587 -0.832815,1.17698 -1.29636,1.71816 -0.449402,0.52467 -0.892315,0.99061 -1.26828,1.37597 -0.144321,0.14793 -0.341017,0.34642 -0.485336,0.49434 -0.06812,0.0697 -0.131023,0.13464 -0.186484,0.19341 -0.05415,0.0574 -0.106511,0.11444 -0.152234,0.16803 -0.158731,0.18297 -0.255561,0.38709 -0.316916,0.56915 -0.06135,0.18205 -0.09604,0.36827 -0.115727,0.54197 -0.03863,0.34079 -0.02641,0.6982 0.0013,1.00608 0.02779,0.30877 0.07361,0.59301 0.114147,0.79959 0.0403,0.20537 0.07623,0.33826 0.08617,0.34699 a 0.32284873,0.08026861 83.54855 0 0 0.0813,0.21846 c -0.0087,-0.0478 0.137053,0.17293 0.284946,0.61766 0.147037,0.44215 0.294162,1.10092 0.289584,1.92582 -0.0023,0.41162 -0.03937,0.73035 -0.0902,0.99062 -0.05124,0.26237 -0.118974,0.47894 -0.192718,0.69198 -0.07019,0.20278 -0.163577,0.44845 -0.228928,0.69273 -0.07099,0.26537 -0.116443,0.54954 -0.109491,0.88556 0.0069,0.23178 -0.0129,0.57488 -0.02029,0.99722 -0.0076,0.43387 -5.91e-4,0.94323 0.06303,1.5404 0.133242,1.2507 0.505351,2.78771 1.394062,4.69765 0.44009,0.94543 0.703182,1.66234 0.863559,2.21726 0.16606,0.57459 0.226605,0.99197 0.249656,1.31114 0.01187,0.16435 0.01438,0.31107 0.01395,0.45286 -4.28e-4,0.13858 -0.004,0.27239 -0.0024,0.41332 0.0016,0.13692 0.0085,0.28449 0.03336,0.44023 0.0248,0.15537 0.06666,0.31437 0.135357,0.48258 0.06556,0.16057 0.152592,0.32366 0.251296,0.48658 0.09773,0.16131 0.211034,0.32918 0.334342,0.50225 0.241895,0.33953 0.529283,0.70887 0.830931,1.10603 0.584394,0.76943 1.227966,1.65212 1.660151,2.57847 a 0.44299188,0.17277821 53.409138 0 0 0.543908,0.34122 c 0,0.0136 0.430712,0.79121 1.088662,1.79259 l -0.539109,-0.28833 c 0.323499,0.4985 0.705616,1.05569 1.117246,1.59552 0.407606,0.53455 0.853824,1.06486 1.308802,1.50642 0.453418,0.44016 0.952076,0.83832 1.532116,1.1952 0.579086,0.35629 1.23059,0.66608 1.986396,0.93582 1.51296,0.53996 3.444922,0.91931 6.036957,1.18964 1.300204,0.13566 2.38825,0.22812 3.326764,0.27018 0.948052,0.0425 1.75343,0.034 2.475445,-0.0359 0.73541,-0.0713 1.380477,-0.20608 1.996226,-0.4121 0.624032,-0.20879 1.200375,-0.48503 1.78475,-0.8191 a 0.73736022,0.95202876 11.681412 0 0 0.238872,-0.20445 c 2.044388,-2.47262 3.994133,-4.84144 5.787053,-7.03824 a 0.00233504,0.06450709 39.086353 0 0 0.04126,-0.0547 c 0.0039,-0.002 0.925629,-1.32959 1.914891,-2.81435 0.547885,-0.8223 1.111229,-1.68308 1.62602,-2.49623 0.561362,-0.88672 1.043902,-1.68341 1.402018,-2.33005 0.808329,-1.46359 1.481739,-2.35408 2.029135,-2.98378 0.49902,-0.57406 0.97608,-1.01566 1.23501,-1.2806 0.48451,-0.49577 0.64241,-0.88012 0.79275,-1.0506 -0.18435,0.009 -0.6848,-0.111 -1.37034,0.16417 -0.41063,0.16483 -1.021455,0.50588 -1.709044,1.1154 -0.734905,0.65147 -1.565422,1.61024 -2.492474,3.16431 -0.358333,0.59911 -0.838061,1.35611 -1.405687,2.22409 -0.518965,0.79356 -1.082562,1.6358 -1.633034,2.44825 -0.991739,1.46371 -1.911257,2.78228 -1.907329,2.78073 a 0.00217698,0.06478225 38.937926 0 0 0.04127,-0.0547 c -1.75772,2.16658 -3.647617,4.51565 -5.618128,6.97601 -0.454258,0.26319 -0.878785,0.46963 -1.319339,0.62841 -0.477254,0.17202 -0.992182,0.29505 -1.612195,0.36852 -0.615999,0.073 -1.336962,0.0973 -2.237062,0.0719 -0.891392,-0.0252 -1.943824,-0.0987 -3.231637,-0.21718 -2.537931,-0.23343 -4.341541,-0.56497 -5.705491,-1.01853 -0.67559,-0.22466 -1.240539,-0.47837 -1.732716,-0.76344 -0.491996,-0.28496 -0.919102,-0.60578 -1.315801,-0.96985 -0.39777,-0.36491 -0.809502,-0.82696 -1.206733,-1.32233 -0.398096,-0.49645 -0.773621,-1.01625 -1.097752,-1.48797 a 0.41988833,0.10290116 41.908994 0 0 -0.53911,-0.28833 c -0.65795,-0.9701 -1.088662,-1.71804 -1.088662,-1.70447 a 0.44770053,0.16942697 52.830353 0 0 0.543906,0.34122 c -0.51962,-1.04342 -1.25391,-1.99453 -1.853041,-2.74823 -0.322461,-0.40566 -0.598351,-0.74441 -0.834176,-1.06024 -0.117549,-0.15742 -0.217379,-0.29904 -0.299222,-0.42725 -0.08361,-0.13098 -0.143056,-0.23962 -0.182515,-0.32933 -0.03782,-0.0859 -0.06064,-0.16395 -0.0752,-0.24273 -0.01523,-0.0824 -0.02252,-0.17166 -0.02547,-0.28203 -0.0031,-0.11754 -0.0012,-0.23681 -0.0017,-0.39433 -5.7e-4,-0.15611 -0.0039,-0.32999 -0.0182,-0.52861 -0.02829,-0.39177 -0.0996,-0.88147 -0.281999,-1.52706 -0.174838,-0.61883 -0.454111,-1.3898 -0.906252,-2.37753 -0.82987,-1.81363 -1.148725,-3.23709 -1.246181,-4.35508 -0.0467,-0.53576 -0.04217,-0.99391 -0.02299,-1.39294 0.01881,-0.3913 0.05344,-0.7216 0.06037,-1.03485 0.0067,-0.20188 0.04417,-0.36518 0.100402,-0.52906 0.06185,-0.18026 0.135046,-0.33471 0.239736,-0.58387 0.09794,-0.2331 0.206003,-0.51201 0.293196,-0.86065 0.08685,-0.34727 0.150621,-0.75358 0.171445,-1.25207 0.04142,-0.99115 -0.09866,-1.8045 -0.250958,-2.38126 -0.08722,-0.33031 -0.177829,-0.58187 -0.241142,-0.74592 0.0048,-0.012 -0.0096,-0.1172 -0.02758,-0.27367 -0.02035,-0.17729 -0.04413,-0.41039 -0.0533,-0.65514 -0.0095,-0.25229 -0.002,-0.48653 0.02904,-0.66823 0.01537,-0.0901 0.03414,-0.1518 0.04978,-0.1857 0.0146,-0.0316 0.0227,-0.0228 -0.0085,0.0168 0.03165,-0.0316 0.0405,-0.041 0.10156,-0.10083 0.04913,-0.0481 0.105671,-0.10284 0.174991,-0.16979 0.136986,-0.13229 0.309899,-0.29886 0.503515,-0.48994 0.39781,-0.39258 0.879798,-0.88536 1.37271,-1.448 0.507206,-0.57896 1.020507,-1.22564 1.466621,-1.91092 0.461258,-0.70853 0.85555,-1.46561 1.096785,-2.24132 0.207539,-0.66662 0.547002,-1.59835 1.005489,-2.73677 0.483661,-1.20093 1.086443,-2.59926 1.792649,-4.14168 1.606415,-3.50856 3.601988,-7.4482 5.866108,-11.52029 1.310859,-2.35741 3.004884,-5.47677 4.617983,-8.47503 1.934501,-3.59565 3.806122,-7.11505 5.32677,-10.00187 2.726809,-5.176619 4.208097,-8.092235 4.91101,-9.589438 1.097766,-2.338238 0.824796,-2.505843 0.760001,-2.540475 z"
       id="path15-3"
       transform="matrix(0.17164961,0,0,0.17164961,277.51808,13.204934)" /><path
       style="fill:#000000;fill-opacity:1;fill-rule:nonzero;stroke:none;stroke-width:1.12023;stroke-dasharray:none;stroke-opacity:1"
       d="m 103.96441,158.15863 c -0.0556,-0.0603 -0.29357,-0.28192 -0.63868,-0.11195 -0.24303,0.1197 -0.64517,0.45744 -1.17608,1.14217 -0.31565,0.40709 -0.68737,0.96267 -0.98601,1.60956 -0.26622,0.57667 -0.49019,1.26046 -0.53673,1.99014 -0.0405,0.64963 0.004,1.18476 0.0692,1.69226 0.0656,0.51041 0.14099,0.92733 0.17934,1.43847 0.0383,0.51009 0.0345,1.07649 -0.0638,1.79117 -0.10611,0.77115 -0.31798,1.67912 -0.66918,2.77855 -0.352864,1.1046 -0.678936,2.00874 -1.01898,2.72883 -0.317256,0.67183 -0.640007,1.17151 -1.026052,1.59602 -0.376445,0.41396 -0.824143,0.76933 -1.422568,1.16335 -0.607911,0.40027 -1.358511,0.83199 -2.296214,1.38379 -0.429362,0.25184 -0.91788,0.45879 -1.446685,0.62743 -0.549534,0.17525 -1.136628,0.30725 -1.736223,0.40573 -1.315176,0.21599 -2.691286,0.27072 -3.869923,0.26858 -1.436985,-0.003 -2.895178,-0.0977 -3.630033,-0.13327 -0.23433,-0.0114 -0.438781,-0.0198 -0.620583,-0.0242 -0.331232,-0.008 -0.605807,-1e-4 -0.839098,0.0177 -0.620271,0.0473 -0.937984,0.16474 -1.107458,0.19435 0.133015,0.0893 0.406929,0.34001 0.984345,0.57556 0.220841,0.0901 0.491428,0.18063 0.821708,0.26104 0.180799,0.044 0.389391,0.0884 0.626193,0.13195 0.829801,0.15252 2.160449,0.31944 3.748071,0.35467 1.22649,0.0272 2.690307,-0.0238 4.118114,-0.26815 0.652169,-0.11164 1.307593,-0.26547 1.93377,-0.47562 0.60187,-0.20198 1.184037,-0.45843 1.712491,-0.78455 0.910554,-0.56335 1.68494,-1.04314 2.316883,-1.49712 0.635144,-0.45627 1.1502,-0.90221 1.592514,-1.43698 0.453386,-0.54815 0.806006,-1.16075 1.135128,-1.907 0.34795,-0.78893 0.67743,-1.74885 1.03242,-2.86015 0.36334,-1.13739 0.60329,-2.09612 0.74179,-2.93649 0.12941,-0.78515 0.16338,-1.42318 0.15169,-2.00869 -0.011,-0.55071 -0.064,-1.05781 -0.0931,-1.50748 -0.0304,-0.46951 -0.0395,-0.92045 0.0164,-1.46107 0.0545,-0.51514 0.23325,-1.02859 0.46152,-1.50476 0.25374,-0.52928 0.56763,-1.00987 0.82955,-1.38518 0.47139,-0.67548 0.71684,-0.95641 0.8276,-1.22455 0.13214,-0.31988 -0.0619,-0.55959 -0.12133,-0.62409 z"
       id="path16-51"
       transform="matrix(0.17164961,0,0,0.17164961,277.51808,13.204934)" /><path
       style="fill:#000000;fill-opacity:1;fill-rule:nonzero;stroke:none;stroke-width:1.12023;stroke-dasharray:none;stroke-opacity:1"
       d="m 139.35655,25.763396 c 0.34363,0.237609 0.78422,0.730944 2.06179,1.425655 1.49548,0.813208 4.60868,2.227926 8.91587,4.086607 a 0.0139503,1.140115e-4 22.356646 0 0 0.0171,0.0069 c 2.14531,0.892093 4.7322,1.929391 7.6453,3.073953 a 0.91326743,1.0314269 61.845846 0 0 0.26392,0.06272 c 3.30872,0.32179 6.90755,0.659376 10.71469,1.008304 3.19094,1.907853 6.5383,3.902116 9.98613,5.951889 a 0.95988065,0.84119317 58.964947 0 0 0.40147,0.128396 c 2.67992,0.18383 5.4318,0.369409 8.21815,0.555825 2.57616,1.992251 5.1823,4.006025 7.78451,6.016982 a 0.80216222,0.64023174 64.461992 0 0 0.28733,0.139316 c 2.3094,0.526119 4.61534,1.051629 6.88783,1.571234 2.40928,2.153075 4.77952,4.273799 7.07569,6.333175 a 0.61793,0.54904701 70.81505 0 0 0.23163,0.129421 c 4.01826,1.137618 7.90085,2.241359 11.57888,3.294022 1.24447,1.368249 2.45029,2.697089 3.61055,3.979491 1.19245,1.317974 2.42891,2.688711 3.70253,4.104003 a 0.52023349,0.55050873 82.44591 0 0 0.18154,0.131059 c 3.80601,1.68811 7.82089,3.47684 11.9743,5.332297 1.82001,1.891363 3.69382,3.844086 5.59571,5.828852 a 0.54610493,0.71417924 87.946894 0 0 0.19272,0.136708 c 3.24047,1.544608 6.5287,3.113934 9.82243,4.686111 1.95007,2.438075 3.90246,4.8793 5.83319,7.291243 a 0.79951475,0.86494094 78.602077 0 0 0.47519,0.289502 c 3.11086,0.682873 6.18576,1.356466 9.18527,2.010609 1.06389,2.752964 2.10066,5.425999 3.09612,7.977306 a 0.95994041,0.97862355 87.32399 0 0 0.6495,0.58014 c 3.89669,1.0663 7.58983,2.06934 11.00082,2.9847 1.37284,3.0151 2.78548,6.0707 3.99059,8.60744 0.52587,1.50854 0.9707,2.59015 1.30645,3.09721 0.29245,0.44166 0.62768,0.55929 0.75321,0.67115 0.0434,-0.16245 0.25877,-0.44498 0.26032,-0.97468 0.002,-0.62006 -0.22996,-1.80139 -0.63412,-3.39698 a 0.2306505,0.01989358 64.556256 0 0 -0.0421,-0.11248 c -1.11282,-2.5842 -2.48035,-5.67016 -4.03604,-9.12679 a 0.97741895,0.98833492 85.695478 0 0 -0.63943,-0.54377 c -3.39564,-0.92366 -7.08494,-1.91491 -10.98677,-2.95507 -1.01913,-2.543627 -2.08975,-5.200808 -3.19389,-7.93193 a 0.9290304,0.89870965 84.21094 0 0 -0.66143,-0.558189 c -3.07232,-0.624137 -6.22748,-1.26186 -9.42235,-1.906096 -1.94531,-2.343033 -3.91336,-4.71143 -5.87841,-7.076485 a 0.80154904,0.6729606 77.950899 0 0 -0.26281,-0.204849 c -3.33723,-1.527826 -6.6694,-3.053528 -9.95188,-4.558397 -1.93793,-1.942479 -3.84409,-3.855829 -5.68989,-5.713801 a 0.63228444,0.52762639 74.561036 0 0 -0.18267,-0.12657 c -4.17183,-1.814719 -8.2017,-3.57249 -12.01727,-5.244276 -1.25358,-1.378227 -2.46803,-2.716551 -3.63629,-4.007793 -1.19245,-1.317974 -2.42891,-2.688711 -3.70253,-4.104003 a 0.52715464,0.54548766 77.966819 0 0 -0.24911,-0.155588 c -3.67493,-1.071328 -7.55184,-2.209095 -11.56289,-3.390979 -2.27885,-2.100018 -4.62587,-4.267988 -7.00849,-6.471451 a 0.60205927,0.70896509 77.566525 0 0 -0.29001,-0.15358 c -2.25663,-0.570614 -4.54636,-1.151391 -6.84014,-1.73341 -2.59493,-2.07901 -5.19309,-4.160804 -7.7618,-6.217239 a 0.78683635,0.87767923 69.422768 0 0 -0.45235,-0.176356 c -2.78882,-0.242594 -5.5444,-0.480869 -8.22941,-0.709971 -3.429,-2.093863 -6.76052,-4.123876 -9.94069,-6.05475 a 0.9338271,1.0027378 65.293822 0 0 -0.40884,-0.134863 c -3.83314,-0.379113 -7.45886,-0.729947 -10.79467,-1.041253 -2.86662,-1.108097 -5.42813,-2.077838 -7.57876,-2.861263 l 0.0172,0.0069 c -4.36117,-1.728226 -7.56374,-2.926929 -9.19658,-3.408198 -1.39491,-0.411142 -2.05527,-0.373372 -2.46632,-0.448046 z"
       id="path3-2"
       transform="matrix(0.17164961,0,0,0.17164961,277.51808,13.204934)" /><path
       style="fill:#000000;fill-opacity:1;fill-rule:nonzero;stroke:none;stroke-width:1.12023;stroke-dasharray:none;stroke-opacity:1"
       d="m 121.81784,27.2342 c -0.0464,-0.05402 -0.35665,-0.228914 -3.13367,2.027996 -1.56653,1.273125 -5.65678,4.742555 -11.25065,9.86683 -3.21379,2.943991 -7.25907,6.74899 -10.835343,10.407035 -1.589406,1.625746 -3.127704,3.264987 -4.45696,4.795232 -1.246276,1.434719 -2.338664,2.807778 -3.110389,3.994209 -1.21728,1.869905 -2.350513,3.243313 -3.48775,4.564913 -0.515607,0.599195 -1.052663,1.212052 -1.537322,1.80221 -0.479031,0.583307 -0.944925,1.189369 -1.375908,1.850568 -0.421294,0.646333 -0.811761,1.348885 -1.158657,2.151081 -0.339151,0.784287 -0.635077,1.659961 -0.880774,2.672859 -0.477243,1.967462 -0.765962,4.454628 -0.821875,7.846706 -0.0052,0.495049 -0.01192,0.849605 -0.02485,1.116377 -0.01301,0.268406 -0.03072,0.407848 -0.04766,0.494988 -0.0072,0.03679 -0.0141,0.06325 -0.01797,0.07654 -0.0044,0.015 -0.0096,0.03031 -0.02278,0.05387 -0.0142,0.02532 -0.0363,0.058 -0.07433,0.108172 -0.0369,0.04868 -0.08644,0.110528 -0.145618,0.186228 -0.120982,0.154757 -0.269368,0.351938 -0.449253,0.635746 -0.177439,0.279947 -0.381203,0.637485 -0.616991,1.112061 -0.469776,0.945529 -1.072199,2.366586 -1.852973,4.585396 -0.313946,0.911224 -0.406838,1.854922 -0.377218,2.821737 0.02981,0.972982 0.185065,1.993391 0.378268,3.04021 0.418599,2.268067 0.959394,4.468756 1.153043,7.181724 0.0511,0.71841 0.140347,1.28063 0.262446,1.71471 0.06237,0.22172 0.13526,0.41709 0.22026,0.5861 0.08594,0.17088 0.188158,0.32257 0.311236,0.44735 0.126583,0.12833 0.274484,0.22719 0.442566,0.28561 0.170881,0.0594 0.341552,0.0697 0.500942,0.0479 0.15899,-0.0217 0.304107,-0.0746 0.430932,-0.13834 0.129305,-0.065 0.249122,-0.14584 0.357534,-0.23116 0.214411,-0.16874 0.415613,-0.37971 0.595512,-0.59526 0.175664,-0.21046 0.337035,-0.43262 0.475421,-0.63676 0.266246,-0.39274 0.450055,-0.72493 0.461477,-0.73256 l -0.02803,0.0469 c 2.968739,-4.410682 6.171291,-9.142118 9.406849,-13.918832 0.674343,0.126883 2.093644,0.353187 3.750911,0.476705 1.169307,0.08715 2.456814,0.1234 3.69529,0.03933 0.62738,-0.04259 1.24544,-0.116243 1.832303,-0.230924 0.59288,-0.115857 1.16133,-0.275002 1.67951,-0.490732 1.02781,-0.427686 2.1402,-1.142738 3.28011,-2.028553 1.19056,-0.925173 2.44182,-2.060811 3.69967,-3.310396 2.74811,-2.730071 5.59223,-6.06745 8.08032,-9.202392 1.52754,-1.924746 2.90158,-3.613389 4.45603,-5.660599 1.75205,-2.307456 3.26053,-4.462444 4.56131,-6.593977 1.74956,-2.866937 2.85714,-5.263768 3.56415,-7.261448 0.19401,-0.548185 0.35266,-1.052082 0.48214,-1.509278 0.89242,-3.150973 0.67835,-5.314679 0.64546,-6.094692 -0.10023,0.739771 -0.56659,2.894508 -1.65049,5.764129 -0.16166,0.428002 -0.34881,0.9007 -0.56784,1.416374 -0.8005,1.884726 -1.94196,4.145619 -3.71407,6.908912 -1.31853,2.056019 -2.82123,4.136847 -4.58006,6.403286 -1.60081,2.062807 -2.89087,3.621356 -4.47935,5.604589 -2.48237,3.09916 -5.28247,6.386605 -7.95469,9.065596 -1.22316,1.226267 -2.4175,2.322783 -3.5334,3.20654 -1.07835,0.854018 -2.05792,1.4888 -2.89961,1.855856 -0.39636,0.172987 -0.85815,0.313621 -1.37471,0.423231 -0.509676,0.108152 -1.061874,0.183835 -1.640249,0.232348 -1.144743,0.09602 -2.358323,0.08288 -3.48704,0.01921 -2.218296,-0.125144 -4.030909,-0.44503 -4.018624,-0.421073 l -0.672179,0.282275 c -3.248747,4.951948 -6.471716,9.861481 -9.477649,14.413912 a 0.0020661,0.05003774 33.207182 0 0 -0.02803,0.047 c 0.01142,-0.008 -0.149108,0.30317 -0.379755,0.65572 -0.120938,0.18486 -0.258016,0.37748 -0.402367,0.55334 -0.150606,0.18347 -0.29765,0.33459 -0.432613,0.4408 -0.06729,0.053 -0.126629,0.0908 -0.176707,0.11552 -0.04946,0.0244 -0.08159,0.0319 -0.09745,0.0335 -0.01474,0.001 -0.0092,-4.1e-4 -0.0071,-4.8e-4 0.002,-6e-5 -0.0047,-5.5e-4 -0.03068,-0.0285 -0.0262,-0.0282 -0.06635,-0.0818 -0.112714,-0.1779 -0.04565,-0.0947 -0.09384,-0.22336 -0.13992,-0.39572 -0.091,-0.34037 -0.166865,-0.82456 -0.208686,-1.50043 -0.174037,-2.800977 -0.703772,-5.10455 -1.071516,-7.315616 -0.172082,-1.034644 -0.294004,-1.982651 -0.301279,-2.858383 -0.0072,-0.863682 0.09744,-1.639425 0.363356,-2.352743 0.790023,-2.181591 1.390243,-3.535841 1.842948,-4.400994 0.225886,-0.431686 0.413199,-0.73811 0.567428,-0.963566 0.153455,-0.224325 0.277051,-0.372753 0.381301,-0.491116 0.05416,-0.06149 0.103543,-0.115303 0.1577,-0.176793 0.052,-0.0591 0.109668,-0.127068 0.165417,-0.204112 0.05763,-0.07964 0.112491,-0.167875 0.161685,-0.269823 0.04918,-0.101918 0.0881,-0.208015 0.119514,-0.320723 0.06113,-0.219331 0.09557,-0.471288 0.119535,-0.768832 0.02455,-0.304812 0.04042,-0.691141 0.05397,-1.187516 0.07156,-3.322509 0.368791,-5.681981 0.820875,-7.49285 0.231874,-0.928795 0.5051,-1.714993 0.809957,-2.40716 0.311515,-0.707286 0.660746,-1.326826 1.040329,-1.902169 0.390102,-0.591288 0.818484,-1.145088 1.277848,-1.700719 0.470461,-0.569054 0.987471,-1.156447 1.517713,-1.771908 1.158332,-1.344493 2.345243,-2.786987 3.612234,-4.751055 0.707417,-1.096378 1.738673,-2.408371 2.959353,-3.826278 1.294827,-1.504033 2.802379,-3.126984 4.369657,-4.748636 3.513188,-3.635079 7.534988,-7.478003 10.691858,-10.440566 5.61909,-5.273235 9.23402,-8.514937 10.95373,-10.14484 2.59177,-2.456431 2.49261,-2.756831 2.43566,-2.823072 z"
       id="path4-01"
       transform="matrix(0.17164961,0,0,0.17164961,277.51808,13.204934)" /><path
       style="fill:none;fill-opacity:1;stroke:#000000;stroke-width:0.192288;stroke-dasharray:none;stroke-opacity:1"
       d="m 297.59104,26.613224 c 0,0 0.30006,-0.82123 1.61089,-0.69489 1.31082,0.12635 1.64247,0.61593 1.64247,0.61593"
       id="path5-6" /><path
       style="fill:#000000;fill-opacity:1;stroke:#000000;stroke-width:0.192288;stroke-dasharray:none;stroke-opacity:1"
       d="m 298.3255,27.682794 c 0,0 0.20709,-0.39118 0.36343,-0.7262 0.15635,-0.33502 0.48595,-0.49384 1.18374,-0.42548 0.60181,0.059 0.58972,0.75125 0.58972,0.75125 0,0 -0.0695,0.50173 -0.71718,0.61341 -0.64772,0.11167 -1.41971,-0.21298 -1.41971,-0.21298 z"
       id="path6-4" /><path
       style="fill:none;fill-opacity:1;stroke:#000000;stroke-width:0.192288;stroke-dasharray:none;stroke-opacity:1"
       d="m 297.98587,28.255704 c 0,0 0.69489,0.39483 1.48454,0.12635 0.78966,-0.26849 1.29502,-0.66331 1.29502,-0.66331"
       id="path7-0" /><path
       style="fill:none;fill-opacity:1;stroke:#000000;stroke-width:0.192288;stroke-dasharray:none;stroke-opacity:1"
       d="m 291.6113,26.829124 c 0,0 2.01013,-3.17153 3.17153,-4.33294 1.16141,-1.1614 3.93091,-3.66289 3.93091,-3.66289"
       id="path17-6" /><path
       style="fill:none;fill-opacity:1;stroke:#000000;stroke-width:0.192288;stroke-dasharray:none;stroke-opacity:1"
       d="m 291.0976,29.196604 2.65783,-3.95325 c 0,0 1.67511,-2.27814 2.99286,-3.59589 1.31774,-1.31775 2.21113,-2.14413 2.21113,-2.14413"
       id="path18-1" /><path
       style="fill:none;fill-opacity:1;stroke:#000000;stroke-width:0.192288;stroke-dasharray:none;stroke-opacity:1"
       d="m 293.18478,27.860884 c 0,0 2.05309,-3.00068 2.7164,-3.85351 0.6633,-0.85282 3.31654,-3.88508 3.31654,-3.88508"
       id="path19-8" /><path
       style="fill:none;fill-opacity:1;stroke:#000000;stroke-width:0.192288;stroke-dasharray:none;stroke-opacity:1"
       d="m 294.32188,27.797704 c 0,0 1.64247,-1.83199 2.9691,-3.72715 1.3266,-1.89517 2.08467,-3.53764 2.08467,-3.53764"
       id="path22-9" /><path
       style="fill:#000000;fill-opacity:1;fill-rule:nonzero;stroke:none;stroke-width:1.12023;stroke-dasharray:none;stroke-opacity:1"
       d="m 98.36933,87.829759 c -0.0714,-0.0306 -0.458511,0.04433 -2.158254,3.735717 -1.156529,2.511668 -3.428905,7.733005 -6.60479,15.565104 -1.832246,4.51853 -4.03548,10.10765 -5.780226,14.97358 -0.783164,2.18418 -1.490787,4.26973 -2.023057,6.04102 -0.255537,0.85037 -0.472952,1.63591 -0.639006,2.32881 -0.161334,0.6732 -0.278431,1.27627 -0.33196,1.77414 -0.05155,0.48831 -0.05965,0.92956 -0.01484,1.32064 0.04387,0.38285 0.141188,0.74183 0.318906,1.05218 0.0885,0.15455 0.196197,0.29562 0.324566,0.41911 0.127583,0.12274 0.270172,0.2229 0.424555,0.30099 0.152621,0.0772 0.311787,0.13034 0.472891,0.16436 0.159461,0.0337 0.321025,0.0487 0.481509,0.0501 0.315155,0.003 0.642091,-0.0471 0.968479,-0.12609 0.324278,-0.0785 0.664079,-0.18986 1.012734,-0.3216 0.685753,-0.2591 1.438168,-0.60962 2.218923,-0.97957 0.771734,-0.36567 1.578898,-0.75411 2.388785,-1.09969 0.803023,-0.34266 1.599412,-0.6391 2.360056,-0.83027 0.75768,-0.19042 1.455383,-0.27002 2.075472,-0.20173 0.307288,0.0338 0.594009,0.10383 0.860144,0.2138 0.265458,0.1097 0.516546,0.26166 0.751473,0.46546 0.52794,0.45901 0.972448,0.98037 1.34632,1.54389 0.376278,0.56714 0.680492,1.17625 0.92523,1.80504 0.498603,1.28103 0.745859,2.63208 0.856613,3.85006 0.238408,2.62179 -0.109425,4.4904 -0.105054,4.46537 l 0.412136,0.60864 c 1.97864,0.41656 4.27591,0.94333 6.61859,1.4858 -0.93453,2.0047 -1.86128,3.99665 -2.64793,5.75919 a 0.78834732,0.72247014 56.05522 0 0 -0.059,0.39206 c 0.22086,2.01628 0.46145,3.65652 0.74647,4.44978 0.20683,0.57565 0.54632,0.8816 0.65558,1.05792 0.0659,-0.19669 0.32612,-0.57238 0.39534,-1.18012 0.0922,-0.80965 -0.0376,-2.38027 -0.27015,-4.30279 0.83514,-1.93213 1.75419,-4.15525 2.66855,-6.36211 a 0.62472128,0.64693968 16.818107 0 0 -0.4508,-0.87787 c -2.43637,-0.46133 -4.85571,-0.92125 -6.944817,-1.35404 0.103825,-0.74995 0.252829,-2.28102 0.105975,-4.23497 -0.0968,-1.28802 -0.336976,-2.75732 -0.863386,-4.18068 -0.259316,-0.70116 -0.589675,-1.3955 -1.009769,-2.05326 -0.417935,-0.65438 -0.924489,-1.27221 -1.537116,-1.82343 -0.334233,-0.30034 -0.69917,-0.5316 -1.088163,-0.70097 -0.388381,-0.16909 -0.794408,-0.27376 -1.209356,-0.32706 -0.827716,-0.10632 -1.695734,-0.009 -2.550334,0.19219 -0.861389,0.20266 -1.735967,0.51721 -2.576804,0.86279 -0.846361,0.34785 -1.689412,0.74041 -2.453545,1.09046 -0.791403,0.36254 -1.497385,0.6791 -2.123263,0.90562 -0.314734,0.1139 -0.595721,0.19996 -0.844057,0.25599 -0.252938,0.0571 -0.45444,0.0789 -0.611173,0.0745 -0.07772,-0.002 -0.139711,-0.0107 -0.188545,-0.0223 -0.04871,-0.0116 -0.08357,-0.026 -0.108868,-0.0399 -0.02486,-0.0137 -0.04477,-0.0293 -0.06257,-0.0477 -0.01811,-0.0187 -0.03937,-0.0458 -0.06159,-0.0865 -0.04666,-0.0854 -0.09881,-0.23338 -0.125134,-0.47982 -0.02673,-0.25024 -0.02405,-0.5757 0.02122,-0.99085 0.045,-0.40509 0.147016,-0.93794 0.30221,-1.58264 0.158058,-0.6566 0.367348,-1.41328 0.617447,-2.24661 0.521019,-1.73602 1.216427,-3.79571 1.990276,-5.97001 1.716103,-4.82176 3.902043,-10.44101 5.686437,-14.94953 3.104323,-7.843495 5.266021,-13.106113 6.253487,-15.68589 1.451123,-3.791096 1.264585,-4.111433 1.18318,-4.146321 z"
       id="path23-84"
       transform="matrix(0.17164961,0,0,0.17164961,277.51808,13.204934)" /><path
       style="fill:#000000;fill-opacity:1;stroke:#000000;stroke-width:0.192288;stroke-dasharray:none;stroke-opacity:1"
       d="m 290.29465,38.931804 c 0,0 1.12131,-0.26848 1.46876,0.52117 0.34744,0.78965 -0.97917,2.16365 -0.97917,2.16365 l 0.079,-0.94758 c 0.4064,-0.5122 0.82925,-1.23182 0.2369,-1.46876 -0.71068,-0.28428 -0.83703,-0.28428 -0.83703,-0.28428"
       id="path24-1" /><path
       style="fill:#000000;fill-opacity:1;fill-rule:nonzero;stroke:none;stroke-width:1.12023;stroke-dasharray:none;stroke-opacity:1"
       d="m 113.16914,122.36989 c 0.0124,0.0118 0.03,0.0264 0.0555,0.0422 0.0204,0.0127 0.0455,0.0259 0.0762,0.0389 0.051,0.0215 0.11681,0.042 0.20106,0.058 0.13708,0.026 0.31931,0.0391 0.55713,0.027 0.2429,-0.0124 0.5379,-0.051 0.88314,-0.12475 0.20105,-0.0429 0.4304,-0.0976 0.6916,-0.1656 1.03651,-0.26981 2.46495,-0.72106 4.18042,-1.30849 3.03115,-1.03798 5.72514,-2.06754 5.71922,-2.08655 a 0.16638799,0.54442872 29.952933 0 0 0.51335,-0.4796 c 0.0203,-0.0434 0.0404,-0.0867 0.0605,-0.12984 1.94184,-4.17325 4.10447,-9.86485 5.26585,-12.70406 0.58407,-1.42786 1.08464,-2.68731 1.30157,-3.22477 -0.28318,0.5057 -0.9516,1.68468 -1.69905,3.03421 -1.48626,2.68346 -4.56932,7.9338 -6.60689,12.06115 -0.0211,0.0427 -0.0422,0.0855 -0.0633,0.12849 l 0.51335,-0.4796 c -0.006,-0.0208 -2.66008,1.08484 -5.5977,2.32981 -1.63022,0.6909 -3.05912,1.30447 -3.98812,1.72775 -0.24181,0.11018 -0.45191,0.20836 -0.63283,0.29592 -0.31056,0.1503 -0.56321,0.29091 -0.76075,0.41432 -0.19385,0.12111 -0.33134,0.22345 -0.43012,0.30729 -0.0608,0.0516 -0.10586,0.0953 -0.14108,0.13184 -0.0212,0.022 -0.0387,0.0413 -0.0536,0.0578 -0.0188,0.0209 -0.0329,0.0366 -0.0455,0.0486 z"
       id="path25-4"
       transform="matrix(0.17164961,0,0,0.17164961,277.51808,13.204934)" /><path
       style="fill:#000000;fill-opacity:1;fill-rule:nonzero;stroke:none;stroke-width:1.12023;stroke-dasharray:none;stroke-opacity:1"
       d="m 191.01346,129.07722 c 0.96338,1.96767 3.57297,7.51837 5.78031,11.80604 2.70232,5.24918 6.24567,11.55449 9.36851,17.33174 3.12283,5.77724 6.45712,12.19556 9.3685,17.33174 2.3781,4.19537 5.59253,9.41912 6.71104,11.30294 -0.96338,-1.96767 -3.57297,-7.51837 -5.78031,-11.80604 -2.70232,-5.24918 -6.24567,-11.55449 -9.36851,-17.33174 -3.12283,-5.77724 -6.45712,-12.19556 -9.3685,-17.33174 -2.3781,-4.19537 -5.59253,-9.41912 -6.71104,-11.30294 z"
       id="path26-3"
       transform="matrix(0.17164961,0,0,0.17164961,277.51808,13.204934)" /><path
       style="fill:#000000;fill-opacity:1;fill-rule:nonzero;stroke:none;stroke-width:1.12023;stroke-dasharray:none;stroke-opacity:1"
       d="m 120.74965,102.01264 c -0.85706,0.88902 -3.32843,3.31275 -5.14238,5.33413 -2.2188,2.47251 -4.7363,5.67315 -7.10446,8.50973 -2.36815,2.83657 -5.06784,5.88511 -7.10445,8.50972 -1.665,2.14573 -3.60851,5.01015 -4.330213,6.01218 0.857064,-0.88902 3.328433,-3.31275 5.142383,-5.33413 2.2188,-2.47251 4.7363,-5.67315 7.10445,-8.50973 2.36815,-2.83657 5.06785,-5.88511 7.10445,-8.50972 1.66501,-2.14573 3.60852,-5.01015 4.33022,-6.01218 z"
       id="path27-9"
       transform="matrix(0.17164961,0,0,0.17164961,277.51808,13.204934)" /><path
       style="fill:#000000;fill-opacity:1;stroke:#000000;stroke-width:0.192288;stroke-dasharray:none;stroke-opacity:1"
       d="m 300.35482,20.027534 c 0,0 -0.2369,-3.1744 -0.96337,-3.79033 -0.72649,-0.61593 0.14213,1.98992 0.34744,2.46371 0.20531,0.47379 0.61593,1.32662 0.61593,1.32662 z"
       id="path28-8" /><path
       style="fill:#000000;fill-opacity:1;stroke:#000000;stroke-width:0.192288;stroke-dasharray:none;stroke-opacity:1"
       d="m 294.87463,20.769804 -0.93178,-2.13206 c 0,0 0.11054,0.25269 0.4422,0.458 0.33165,0.20531 0.458,0.079 0.74227,0.61593 0.28427,0.53696 0.30007,0.55275 0.30007,0.55275 z"
       id="path29-8" /><path
       style="fill:#000000;fill-opacity:1;fill-rule:nonzero;stroke:none;stroke-width:1.12023;stroke-dasharray:none;stroke-opacity:1"
       d="m 162.48513,169.47769 c -0.0759,0.0517 -0.18295,0.12385 -0.34792,0.18798 -0.0429,0.0167 -0.0947,0.0344 -0.12874,0.0546 -0.02,0.0119 -0.0398,0.0269 -0.0623,0.0499 -0.044,0.0451 -0.0934,0.121 -0.21856,0.28057 -0.0959,0.12229 -0.25647,0.31518 -0.52353,0.57069 -0.43036,0.41176 -1.23907,1.08582 -2.80645,2.02979 -1.32504,0.79802 -3.3028,1.85613 -6.29715,3.19311 -2.81117,1.21581 -4.96184,2.08534 -6.55731,2.67095 -0.73987,0.27156 -1.34274,0.47558 -1.8287,0.62419 -0.46937,0.14355 -0.81396,0.23055 -1.05997,0.27834 -0.11894,0.0231 -0.20787,0.0357 -0.2715,0.0416 -0.0613,0.006 -0.0948,0.004 -0.0909,0.003 0.004,-5.8e-4 0.0453,-0.003 0.13735,0.0311 0.0447,0.0164 0.10393,0.0436 0.16814,0.0883 0.0649,0.0452 0.13309,0.10712 0.19329,0.1891 0.0603,0.0821 0.10426,0.17308 0.13153,0.26725 0.0267,0.0921 0.0346,0.17753 0.0333,0.24985 -0.002,0.13669 -0.0379,0.23798 -0.059,0.28876 -0.0224,0.0539 -0.0462,0.0928 -0.0612,0.11546 -0.016,0.0241 -0.0323,0.0452 -0.0484,0.0644 a 0.03079837,0.37857146 50.257373 0 0 -0.1368,0.13395 c 0.007,-0.006 2.07309,-1.65207 4.69385,-3.98355 1.23987,-1.10302 2.60782,-2.36631 3.85154,-3.62022 0.61047,-0.61547 1.19666,-1.23435 1.72528,-1.83464 0.52118,-0.59186 0.99428,-1.17454 1.38123,-1.72436 0.58049,-0.82697 0.95881,-1.7985 1.20586,-2.76952 0.24331,-0.9563 0.365,-1.93502 0.41899,-2.81473 0.10585,-1.72472 -0.0497,-3.0969 -0.068,-3.12585 l -0.82655,0.91811 c 0,-0.0148 -0.22146,1.06279 -1.61013,2.80577 l -0.61586,-1.27085 c -1.28932,1.65869 -3.72335,4.00418 -8.25459,6.56027 -4.56874,2.5771 -7.62147,3.83276 -9.50933,4.44902 -1.90619,0.62225 -2.62226,0.595 -2.53358,0.61228 a 0.01816316,1.2799019 0.00518877 0 0 -0.0183,1.28343 c 0,-0.015 1.94015,-0.97403 4.18633,-2.77934 a 0.04750941,0.27619513 60.944866 0 0 0.37408,-0.13097 c 1.17166,-0.94341 2.42387,-2.108 3.57118,-3.49219 1.16991,-1.41147 2.22098,-3.03954 2.97133,-4.88203 1.49671,-3.67601 2.2402,-5.86091 2.61593,-7.11919 0.19855,-0.66491 0.30272,-1.09892 0.35809,-1.36936 0.0573,-0.27986 0.0664,-0.40446 0.0683,-0.4353 a 0.52899998,0.52899998 67.826768 0 0 -0.92211,-0.38403 c -2.44112,2.72496 -5.10188,5.67526 -7.9041,8.77067 -1.25022,0.97288 -2.6988,1.95067 -4.19555,2.88128 -1.48151,0.92112 -2.98923,1.78299 -4.35703,2.52889 -0.16469,0.0898 -0.32723,0.17786 -0.48726,0.26401 2.00845,-1.8081 4.03281,-3.62964 6.05761,-5.45156 a 0.4997305,0.78611824 8.89835 0 0 0.10586,-0.12032 c 2.39456,-3.3794 5.01912,-6.66785 7.04212,-9.10266 2.04083,-2.45627 3.46025,-4.03411 3.46642,-4.01869 l -1.17234,-1.174 c -4.31694,3.77197 -8.54764,7.47221 -12.60116,11.02509 -1.54448,0.97869 -3.49822,2.3002 -5.51926,3.7013 -2.10269,1.45771 -4.31155,3.0247 -6.28036,4.43508 -4.15786,2.97855 -7.25965,5.26423 -7.26185,5.26518 l 1.21762,1.44614 c 7.50554,-7.19105 14.22995,-13.66025 19.83031,-19.09072 a 0.10122798,0.48680344 54.759143 0 0 0.0675,-0.0724 c 0.98864,-1.20859 2.02872,-2.66729 2.93727,-4.01006 1.08329,-1.60102 2.07307,-3.17476 2.81004,-4.3883 1.32643,-2.18419 2.0028,-3.45381 2.29335,-4.10717 0.44906,-1.00981 0.17397,-1.1816 0.11247,-1.21785 -0.0659,-0.0388 -0.33754,-0.18992 -1.01811,0.67088 -0.50085,0.63347 -1.15678,1.62643 -2.64855,3.8489 -0.76687,1.14248 -1.83191,2.72117 -2.91743,4.24315 -0.91755,1.28649 -1.94177,2.66274 -2.89186,3.78499 -5.65735,5.35842 -12.39572,11.79113 -19.88574,18.97081 a 1.0153332,0.90262208 8.2666147 0 0 1.21762,1.44614 c -0.002,9.5e-4 3.09023,-2.28777 7.22933,-5.26967 1.96084,-1.41264 4.15667,-2.97992 6.24414,-4.43788 2.03525,-1.42148 3.98279,-2.74967 5.49818,-3.72037 a 0.57448311,0.96868185 83.70909 0 0 0.11381,-0.0856 c 4.04344,-3.59848 8.25695,-7.35641 12.55303,-11.19175 l -1.17234,-1.174 c 0.006,0.0154 -1.40153,1.62731 -3.43414,4.12398 -1.99994,2.45653 -4.60551,5.77202 -6.99128,9.19009 -3.16823,2.93794 -6.33503,5.87447 -9.44293,8.75287 a 0.88007208,0.44972311 83.093378 0 0 0.70959,1.05304 c 0.001,-0.0172 2.11124,-1.04384 4.79705,-2.53804 1.37586,-0.76544 2.89674,-1.64916 4.39517,-2.59478 1.52688,-0.96356 3.01881,-1.98403 4.3128,-3.00724 a 0.35715644,0.5980004 77.696977 0 0 0.0717,-0.0672 c 2.78232,-3.13873 5.43512,-6.12002 7.88636,-8.85628 l -0.92211,-0.38403 c 0.002,-0.0346 8.6e-4,0.0335 -0.0525,0.27777 -0.051,0.23332 -0.15157,0.63565 -0.34922,1.27585 -0.37413,1.21183 -1.12112,3.35753 -2.62851,7.00397 -0.70823,1.71281 -1.70182,3.23598 -2.81937,4.56598 -1.09621,1.30458 -2.29691,2.40567 -3.42713,3.29909 l 0.37406,-0.13095 c -2.24618,1.7795 -4.18633,2.71013 -4.18633,2.69509 l -0.0183,1.28343 c 0.0887,0.0173 0.95704,0.0442 2.98687,-0.58383 2.00773,-0.62118 5.16282,-1.89062 9.81224,-4.4757 4.6845,-2.60473 7.30479,-5.04656 8.76676,-6.87279 a 0.53074969,0.84588738 6.2514515 0 0 -0.61585,-1.27086 c 0.33332,-0.42605 0.59939,-0.81372 0.8113,-1.1571 0.0118,0.51524 0.0106,1.22789 -0.0497,2.00815 -0.0623,0.80552 -0.18409,1.66769 -0.40333,2.48432 -0.22437,0.83571 -0.53941,1.58084 -0.96206,2.16725 -0.34135,0.47637 -0.77315,1.00279 -1.27068,1.56065 -0.5025,0.56344 -1.06606,1.15229 -1.66126,1.74625 -1.21357,1.21107 -2.55612,2.44093 -3.78375,3.52444 -2.58897,2.28504 -4.64138,3.91004 -4.63427,3.90367 l -0.1368,0.13395 c -0.0162,0.0193 -0.0432,0.0532 -0.0736,0.099 -0.0296,0.0446 -0.0715,0.11399 -0.10856,0.20298 -0.0359,0.0863 -0.0826,0.22738 -0.0859,0.40431 -0.002,0.0926 0.009,0.19839 0.0409,0.31038 0.033,0.11421 0.0863,0.22474 0.16018,0.32549 0.0739,0.10075 0.16017,0.18045 0.24835,0.24196 0.0877,0.0611 0.17555,0.10327 0.25495,0.13266 0.15541,0.0575 0.30593,0.0764 0.42748,0.0819 0.12761,0.006 0.25898,-0.002 0.39007,-0.017 0.13486,-0.0156 0.28237,-0.0408 0.44291,-0.0747 0.32865,-0.0694 0.73681,-0.18087 1.23949,-0.34127 0.52428,-0.16731 1.15732,-0.38981 1.91557,-0.67685 1.63304,-0.61822 3.81091,-1.52227 6.62719,-2.76844 l 0.01,-0.004 c 3.04272,-1.38979 5.07201,-2.51262 6.45491,-3.39325 1.63628,-1.04199 2.51711,-1.84071 3.01878,-2.42108 0.31123,-0.36005 0.50141,-0.66532 0.61866,-0.91723 0.14642,-0.3146 0.18829,-0.56614 0.18613,-0.75021 -0.001,-0.0953 -0.014,-0.17526 -0.0326,-0.24017 -0.0355,-0.12448 -0.0975,-0.20604 -0.15923,-0.25476 -0.18899,-0.14915 -0.36721,-0.0434 -0.42195,-0.006 z"
       id="path30-0"
       transform="matrix(0.17164961,0,0,0.17164961,277.51808,13.204934)" /></g></svg>
